<svg xmlns="http://www.w3.org/2000/svg" width="612" height="612" viewBox="0 0 612 612"><path fill="#8DD4F0" d="M485.893 299.999c-41.138-28.579-115.261 51.27-132.191 42.985-16.935-8.29-27.462 4.251-27.462 4.251l-1.013 13.34c6.465 2.678 13.639 3.022 21.194 1.757l-12.41 56.361s5.479 88.136 27.794 47.237a64.147 64.147 0 0 1 7.602-11.062c-20.059-12.61-43.604-36.787-21.046-69.601 3.526-5.124 7.229-9.939 11.016-14.535.306-.381.555-.737.867-1.125.356-.443.704-.827 1.058-1.266a.537.537 0 0 0 .075-.089c37.829-46.458 75.822-59.962 94.478-52.742 8.846 3.418 18.715-6.842 25.555 0 4.884 4.881-3.437 9.151-3.437 9.151 13.003 1.045 20.627-15.845 7.92-24.662z"/><path fill="#87B3E0" d="M361.301 368.343zM360.243 369.608c-.312.388-.562.744-.867 1.125.651-.786 1.274-1.616 1.925-2.391-.354.439-.701.823-1.058 1.266z"/><path fill="#6786C4" d="M481.408 315.512c-6.84-6.842-16.709 3.418-25.555 0-12.89-4.983-35.001-.071-59.913 18.748l-.006-.006c-27.989 21.281-33.221 22.55-58.934 20.193-20.293-1.854 1.04 26.033 9.737 33.322-19.719 31.538 3.121 48.601 22.668 60.885 16.349-27.622 48.16-14.311 48.16-14.311-22.127-38.956 37.231-53.317 37.231-53.317-5.016-3.87-8.952-8.183-11.96-12.684-15.821-23.686-5.633-52.64 10.836-49.938.717.117 1.442.275 2.18.515 3.445 1.311 6.872 2.564 10.755.625 5.732-2.87 10.857-2.294 12.577-.142.863 1.085.876 2.561-.312 4.206-.153.214-.354.426-.546.64-.119.135-.216.275-.356.414.002.001 8.322-4.269 3.438-9.15z"/><path fill="#8DD4F0" d="M128.5 367.094c31.82-43.47 135.169 11.759 149.486-2.597 14.313-14.365 29.418-5.298 29.418-5.298l5.7 13.213c-5.638 4.978-12.812 7.844-20.943 9.208l32.369 52.963s25.308 91.536-11.715 57.771a69.212 69.212 0 0 0-11.606-8.589c15.981-19.844 31.452-52.678-2.98-78.138-5.388-3.979-10.833-7.58-16.299-10.929-.443-.282-.824-.555-1.274-.837-.516-.324-1.007-.597-1.517-.917a1.279 1.279 0 0 1-.111-.065c-54.739-33.988-98.102-34.414-114.548-20.535-7.795 6.581-21.425-.399-25.985 8.961-3.256 6.668 6.704 8.099 6.704 8.099-12.861 5.615-26.527-8.888-16.699-22.31z"/><path fill="#87B3E0" d="M279.141 392.944a1.279 1.279 0 0 1-.111-.065c.038.026.072.044.111.065zM280.658 393.861c.45.282.831.555 1.274.837-.935-.564-1.855-1.202-2.791-1.754.509.321 1.001.593 1.517.917z"/><path fill="#6786C4" d="M192.168 385.994c21.89 1.199 43.517 6.429 65.265 8.982 15.702 1.842 31.437 3.247 47.184 4.575 5.765-14.224 10.62-36.565-5.634-29.25-25.326 11.399-31.085 11.944-67.007.111v.009c-31.925-10.407-56.133-7.655-67.494 1.922-7.795 6.581-21.425-.399-25.985 8.961-3.256 6.668 6.704 8.099 6.704 8.099-.194-.103-.335-.204-.516-.3a6.871 6.871 0 0 1-.776-.459c-1.784-1.257-2.288-2.759-1.79-4.162.999-2.794 6.005-5.175 12.836-4.272 4.632.625 7.678-1.858 10.728-4.398.656-.497 1.34-.92 2.033-1.288 8.516-4.586 18.368.868 24.452 11.47z"/><path fill="#5273B8" d="M454.798 381.026s-56.858-16.305-103.853 2.821c0 0 42.125 2.194 66.621 50.496 0 .001-20.124-34.791 37.232-53.317z"/><path fill="#6786C4" d="M314.942 30.167c-37.232 14.113-54.771 92.738-37.556 149.456 1.955-2.414 8.923-5.084 11.1-8.131 15.111-21.125 47.046 11.924 47.046 11.924-16.554-16.556-28.396-65.46-20.59-101.229 11.903-54.568 63.728-35.014 63.728-35.014s-18.595-34.111-63.728-17.006zM263.355 206.777c4.617 0 0 0 0-4.722 0-.987.461-1.988 1.295-3.122l-5.817 3.395c1.481 2.786 3.029 4.449 4.522 4.449z"/><path fill="#6786C4" d="M284.789 187.175c-.908-2.468-1.721-4.995-2.498-7.553-8.751 10.817-15.069 15.794-17.641 19.312l20.139-11.759z"/><path fill="#5273B8" d="M328.387 16.605c-46.275 0-73.897 71.658-73.897 71.658s-4.722 69.88-2.833 86.301c1.28 11.114 4.072 21.929 7.178 27.764l5.817-3.395c2.572-3.517 8.89-8.494 17.641-19.312-17.215-56.718-2.485-133.248 34.745-147.357 45.135-17.107 61.634 14.907 61.634 14.907s-13.809-30.566-50.285-30.566z"/><path fill="#6786C4" d="M371.592 451.536l-47.81 39.853c10.428 10.428.506 11.86 3.891 20.421 10.788 27.271-9.282 32.782-15.033 33.79 2.555-.039 11.495 2.449 21.885 8.71 18.313 11.03 22.903 29.271 22.903 29.271 4.722-15.342 20.651-8.617 20.651-8.617-6.61-10.622.827-13.575.827-13.575-36.122-9.208-36.179-21.66.12-57.959 36.297-36.3-7.434-51.894-7.434-51.894z"/><path fill="#AED9F1" d="M260.938 311.008c-11.286 1.923-27.578 8.398-15.009 30.043 1.2-4.773 2.741-9.472 4.312-13.391 1.439-3.606 5.783-10.014 10.697-16.652z"/><path fill="#6786C4" d="M303.361 375.351c4.862-31.479 22.193-32.051 47.584-8.228-.09-.083-.161-.183-.249-.272-24.969-24.97-26.562-34.354-12.835-55.015l-29.542-3.541-19.833 1.892h-18.487s-4.029-.038-9.061.821c-4.914 6.639-9.259 13.046-10.698 16.652-1.571 3.919-3.112 8.617-4.312 13.391.33.572.636 1.127 1.007 1.721 20.778 33.049 44.38-23.141 49.579 22.192 3.724 32.489-17.947 58.476-17.947 58.476s19.871-16.218 24.794-48.089z"/><path fill="#8DD4F0" d="M229.007 210.423s-35.256-57.317 25.053-88.088c0 0-46.653 32.543-14.008 80.119"/><path fill="#6786C4" d="M251.779 150.689c-6.035-16.496 2.282-28.354 2.282-28.354-48.347 34.921-15.483 77.883-15.483 77.883 6.962 10.218 12.949 13.908 18.007 13.761-5.421-20.954-8.533-41.615-4.806-63.29z"/><path fill="#8DD4F0" d="M263.355 195.417l19.366 4.279c23.979-67.053 104.455-48.164 104.455-48.164-91.131-33.053-123.821 43.885-123.821 43.885z"/><path fill="#8DD4F0" d="M328.387 20.857c36.83-2.239 50.283 26.315 50.283 26.315-20.895-48.271-91.368-44.373-122.528 17.489-31.164 61.869-4.135 120.751-28.214 144.836-25.614 25.614-46.862 40.488-39.784 85.815 7.085 45.33 53.36 68.939 76.731 45.564 20.085-20.086 39.034-24.576 48.814-19.818l.003-.003c8.659 4.61 15.869 1.277 21.938-6.222 14.649-19.389 34.108-52.526 29.587-87.516-6.248-48.326-69.211-50.601-101.862-31.901C236.62 71.437 295.637 22.851 328.387 20.857z"/><path fill="#6786C4" d="M353.5 286.063c-11.549 22.933-29.629 36.398-45.666 33.403v14.098c3.062 1.059 11.818 7.487 12.29 7.487.471 0 17.429 10.452 17.429 10.452s-6.569-14.398-.195-29.581c5.067-12.07 12.46-28.009 16.142-35.859z"/><path fill="#87B3E0" d="M327.673 345.898s.174.146.414.352c4.907 1.234-.414-.352-.414-.352z"/><path fill="#8DD4F0" d="M371.237 438.379h-5.007c18.728-51.347-40.44-94.429-52.379-85.746l.353-2.779c-4.544 3.357-8.085 10.362-10.843 21.242-8.5 33.526-24.792 52.344-24.792 52.344-29.743 0-25.021 15.653-51.939 42.568-26.909 26.915-81.213 25.969-81.213 25.969s32.579 37.777 94.91 42.493c62.324 4.722 109.073-20.301 125.128-59.02 7.517-18.137 10.173-37.61 8.362-55.777l-2.58 18.706z"/><path fill="#AED9F1" d="M345.975 362.248c.729.785 1.313 1.302 1.828 1.693a153.496 153.496 0 0 0-3.187-3.06c.536.515 1.005.989 1.359 1.367z"/><path fill="#6786C4" d="M366.23 438.379h5.007l2.579-18.706c-2.036-20.48-9.757-39.292-22.871-52.55a191.54 191.54 0 0 0-3.143-3.182c-.515-.392-1.1-.908-1.828-1.693a36.986 36.986 0 0 0-1.358-1.366c-13.339-12.432-23.158-16.383-30.412-11.028l-.353 2.779c11.939-8.683 71.107 34.399 52.379 85.746z"/><path fill="#6786C4" d="M145.416 491.977s50.938 35.643 125.953 24.672c58.349-8.529 108.854-68.282 97.985-118.602 0 0 18.526 48.128-8.393 90.274-26.938 42.188-129.135 84.394-215.545 3.656z"/><path fill="#6786C4" d="M320.831 516.058s7.556-31.164-19.195-55.656c-23.491-21.516-7.247 35.589-7.247 35.589s1.181 9.97 1.181 12.038c0 2.071 5.664 7.085 5.664 7.085"/><path fill="#8DD4F0" d="M280.958 327.757c25.824-16.749 21.218 5.98 46.775-12.275 23.531-16.802-.885-13.789-4.893-13.789-4.015 0-9.562 3.652-18.181 6.602-8.617 2.956-13.171 3.544-16.325 4.489"/><g><path fill="#8DD4F0" d="M309.25 516.511c15.438-35.164-12.902-62.354-12.902-62.354-10.446-10.449-27.269-26.915-48.104 15.579-5.082 10.358-6.95 18.66-6.838 25.479.208 28.317 55.349 48.049 67.844 21.296z"/><path fill="#6786C4" d="M288.561 563.598c-.072-.194-.141-.348-.207-.552-7.814-22.838-26.724-15.411-15.81 9.679.019.047.03.081.051.129 9.024 18.131 8.512 36.06 8.512 36.06 8.32-16.646 23.905-4.65 23.905-4.65-4.782-16.778 7.649-13.941 7.649-13.941-12.722-6.032-20.943-16.477-24.1-26.725z"/><path fill="#6786C4" d="M288.354 563.046c.066.204.135.357.207.552-2.776-9.006-1.667-17.857 3.889-23.41 8.137-8.137 13.468-16.088 16.8-23.677-12.495 26.753-65.839 6.955-67.845-21.297 1.988 27.985 16.661 29.151 19.515 38.077 3.777 11.811-10.731 14.126-10.731 14.126 10.803 6.988 17.825 16.24 22.406 25.437-.021-.048-.033-.082-.051-.129-10.913-25.09 7.997-32.517 15.81-9.679z"/></g><path fill="#6786C4" d="M266.959 525.1c35.691 12.678 62.195-27.229 34.893-64.387 0 0 16.149 17.804 14.494 40.237-1.651 22.43-4.719 20.537-4.719 20.537l-19.915 9.655-12.434 4.748h-5.193M305.012 604.263s-10.859-11.354-21.131-2.74c0 0-2.455-15.815-9.205-30.339-5.9-12.683-5.682-21.792 1.823-21.792 7.502 0 1.128-3.114 1.128-3.114h-10.668l-16.77 1.14s26.49 15.29 30.918 61.496c0-.001 7.082-13.544 23.905-4.651M249.857 457.595c16.736-18.334 26.322-42.911 38.236-64.587-.195-.046-.408-.085-.572-.129-2.375-.654-15.741-6.623-23.615-8.555-7.867-1.931-23.313-3.562-28.063-3.562-4.755 0-49.681-2.461-49.681-2.461 18.484 17.006-2.599 45.382-2.599 45.382 49.6-13.369 40.389 23.764 40.389 23.764 14.386-.712 21.935 4.494 25.905 10.148z"/><path fill="#6786C4" d="M312.937 353.334l-5.103-3.3s-1.46 4.955-2.465 5.953c-1.001 1.005-3.895 12.047-3.895 12.047l-9.762 9.913-19.999 32.611c-3.826 2.306-8.527 5.142-10.775 7.391a351.742 351.742 0 0 1-5.609 5.49l-5.472 34.155s23.746-6.94 42.401-42.548a74.008 74.008 0 0 0 3.232-6.569c.024-.051.045-.099.069-.146h-.003c9.78-22.763 7.468-46.602 17.381-54.997z"/><path fill="#5273B8" d="M183.563 423.683s42.362-35.064 94.064-31.668c0 0-39.595 9.481-53.675 55.432 0-.001 2.249-30.676-40.389-23.764z"/><path fill="#6786C4" d="M348.311 364.326l.009.006c-.065-.062-.12-.129-.18-.194a80.74 80.74 0 0 0-.828-.891c-30.372-37.379 21.443-74.243 21.443-123.534 0-50.286-43.732-57.581-43.732-57.581l-34.884 12.607c41.436-9.211 73.307 8.5 73.307 45.327 0 36.831-31.344 82.98-53.378 82.98l1.937 7.141c-3.004 3.158-3.33 7.037 5.05 10.863a81.384 81.384 0 0 1 3.676 1.803l2.507 2.137c-6.771-1.771-8.132-2.162-8.132-2.162l-.309 2.414a8.854 8.854 0 0 0-1.55.356c-4.915 1.683-5.355 2.081-6.021 2.747l3.441 7.444c2.312-3.283 6.591-5.479 13.858-2.944 6.884 2.404-.435-4.147-1.58-5.19 1.757.22 3.616.766 5.585 1.631l3.316 2.603 5.214 5.751 8.674 5.154 3.46 2.723c-.384-.43-.698-.858-1.063-1.287.415.432.794.849 1.234 1.287 0 0-.384-.451-1.054-1.191z"/><g><path fill="none" d="M387.176 151.532c-.857-.252-1.7-.474-2.542-.705a71.793 71.793 0 0 0-4.683-.995c2.357.492 4.761 1.05 7.225 1.7z"/><path fill="#6786C4" d="M379.951 149.833c-17.87-3.226-64.328-5.349-86.899 52.397 22.127-5.178 41.972 6.41 41.972 6.41-6.608-64.216 52.151-57.107 52.151-57.107a139.645 139.645 0 0 0-7.224-1.7zM384.634 150.828c.842.23 1.685.453 2.542.705 0-.001-.905-.298-2.542-.705z"/><path fill="#5273B8" d="M275.738 210.084c5.721-4.071 11.594-6.515 17.314-7.855 22.571-57.746 69.029-55.623 86.899-52.397 1.906.341 3.488.698 4.683.995-87.117-23.862-108.896 59.257-108.896 59.257z"/></g><path fill="#5273B8" d="M295.025 266.449c15.184 19.351-13.843 41.174-25.032 36.737-11.195-4.434 10.422-55.372 25.032-36.737z"/><path fill="#FFF" d="M290.021 282.306c-2.359.863-5.034-.926-5.964-4.008-.923-3.076.234-6.275 2.591-7.139 2.365-.86 5.028.93 5.958 4.012.933 3.079-.231 6.278-2.585 7.135z"/></svg>
