<svg xmlns="http://www.w3.org/2000/svg" viewBox="0 0 512 512"><path d="M427 342.3c0 18.9-7.8 30.3-20.7 36.8-.5.3-1.1.5-1.6.8-3.5 1.6-7.4 2.9-11.7 4-1.7.4-3.5.8-5.3 1.1-5.3.9-11 1.5-17 1.8-1.7.1-3.4.2-5.2.2-7.8.2-16 0-24.6-.4-1.5-.1-3-.2-4.5-.2l-30-2.1c-.9-.1-1.8-.1-2.7-.2l-24.2-1.7c-1.4-.1-2.9-.2-4.3-.2l-16.5-.7c-1.9-.1-3.7-.1-5.6-.1H249c-5.8 0-11.7.2-17.5.4-1.4.1-2.7.1-4.1.2l-22.4 1.5c-1.6.1-3.1.2-4.6.4l-17.8 1.5c-1.5.1-3 .2-4.5.4l-11.2.8-5.6.3c-6.8.3-13.3.5-19.5.4-1.6 0-3.1-.1-4.6-.1-20.1-.9-36.1-5.2-44.8-17.4-.5-.6-.9-1.3-1.3-1.9a38.19 38.19 0 0 1-4.1-9.4c-.2-.9-.5-1.8-.7-2.8-.4-1.8-.7-3.6-.9-5.6-.1-.7-.1-1.4-.2-2.2-.1-1.7-.2-3.5-.2-5.4 0-.9 0-1.8.1-2.8 0-.7.1-1.5.1-2.2.2-3.3.6-6.8 1.1-10.4l.2-1.5c.4-2.6.9-5.3 1.6-8 .2-.7.3-1.4.5-2.2.5-2.1 1-4.1 1.6-6.2l.6-2.3 2.5-8 .6-1.8 3.5-9.8c.2-.6.4-1.1.6-1.6a198.61 198.61 0 0 1 3.6-8.6c.2-.6.5-1.1.7-1.7l3.4-7.5c.4-.8.8-1.7 1.2-2.5l3.2-6.5 1-1.9 3.3-6.2c.4-.7.8-1.4 1.1-2 31.6-56.7 83.3-110.4 133.5-110.4 80.2-.2 178 136.7 178 203.9z" fill="#c3d2ac"/><g fill="#5ba26f"><path d="M130.8 277.1c13.5 5.7 27.2 11 40.9 16.1l-.4 2.2c-22.8-6.9-44.7-16.6-65.6-27.7.4-.8.8-1.7 1.2-2.5 7.8 4.3 15.7 8.3 23.9 11.9zM393 383.8l-5.3 1.1c-8.6-3.3-17-7.8-25.7-10.8-29.4-10.2-55.8-26.1-83.8-39.3-11.9-4.9-24-9.3-36.1-13.8h6.9c7 2.6 13.9 5.3 20.8 8.1 26.2 9.8 49.5 25.7 75.5 35.8 15.6 7.1 31.9 12.6 47.7 18.9zm-187.9-.5l-4.6.4c-37.3-13.9-75.9-24.7-111.6-42.4-1.3-.6-2.5-1.1-3.8-1.8 0-.7.1-1.5.1-2.2 14.5 7.3 29.5 13.7 44.9 19.1l75 26.9zm-22.5 1.8l-4.5.4c-31.2-11-63-20.9-92.6-35.6-.1-.7-.1-1.4-.2-2.2 5.9 3 11.9 5.7 18.1 8.2 26 10.5 52.6 19.8 79.2 29.2zm-15.8 1.2l-5.6.3c-25-8.8-50.2-17.2-74.2-28.4-.2-.9-.5-1.8-.7-2.8 14.3 6.8 29 12.8 43.9 18.1l36.6 12.8zm91.9-5l-5.6-.1-43.4-16.4c-39.1-15.2-80.3-26-117.6-45.4-1.4-.7-2.7-1.4-4-2.1.2-.7.3-1.4.5-2.2 12.9 7.1 26.1 13.5 39.9 18.4l130.2 47.8zM152.1 266.1l22.7 8.2-.4 2.2-19.3-6.7c-14.1-5.6-27.6-12-40.7-19.3.4-.7.8-1.4 1.1-2 11.9 6.7 24 12.8 36.6 17.6zm259.8 104.8c-.8 1-1.7 1.1-2.7.7s-1.9-.8-3.1-.5c-3.5-1.2-6.8-3.5-10.9-3.3-1.8 1.5-3.1 1.6-5 .3.4-1.5 1.7-1.1 2.8-1.2-5.9-3.9-13-5.6-19.4-8.6-9-3.9-18.1-8.1-27.2-10.8-17.2-8.2-34.5-16.9-51.1-26.6h2.5c36.6 19.6 74.7 36.4 114.1 50zm-132.5 11.3l-4.3-.2-7-3.6c-16.9-7.4-34.4-13.3-51.7-19.9-40.4-16.1-83-27.2-121.7-47.2l-4.6-2.4.6-2.3c17.6 9.7 35.7 18.4 55.1 24.2 40.5 14.2 80.7 29 120.7 44.5l12.9 6.9zm-169.8-103c19.3 10.1 39.7 17.5 60.3 24.7l-.3 2c-14.7-5.4-29.4-11-43.9-16.9-8.2-3.7-16.2-7.8-24.1-12.2.2-.6.5-1.1.7-1.7a268.01 268.01 0 0 0 7.3 4.1zm170.3 67.2c-22.6-8.9-45.5-17.2-68.4-25.4h5.9l8.1 3.3c14 4 27.6 9.8 41.1 15.1 3.3 2.1 13.1 2.8 13.3 7zm-107-63.1c.1 0 .2.1.4.1l-.4 2.2c-20.9-7.4-41.8-14.5-61-26.1l-1.8-.9 1-1.9c8.8 5.1 17.8 9.8 27.2 13.6 11.3 4.7 22.7 9.4 34.6 13zm119.6 45.3c-6.6.9-14.2-5.3-20.8-7.2-.4-.1-.8-.3-1.2-.4h4.4c5.9 2.4 11.9 4.9 17.6 7.6zm-182.6-36.8c19.1 8.6 38.6 16.1 58.2 23.2l-.3 2.1c-20.9-7.2-41.6-15-61.3-25.2-3.1-1.5-6.1-3.1-9.1-4.8.2-.6.4-1.1.6-1.6l11.9 6.3zm111.2 43.8c-13.8-5.2-27.7-9.9-41.6-14.6h5.6l19 6.7c4 1.8 16.3 3.8 17 7.9zm70.4 41.7c-2.2 2.3-3.7-1-5.6-2-2.7-.7-2.5-.8-3.9-2.3-.8-.2-1.8.1-2.5-1-2.2-2.2-5.9-2.8-8.6-4.4-7.1-2.7-14-5.4-20.7-8.7-4.1-.3-8.4-2.4-12.4-3.7-2-.8-4.4-.9-6.2-2.4-1.8-.5-3.8-.7-4.9-2.4-11-3-21.4-8-32.3-11.6-9.4-3-19.3-5.6-27.6-10.6-5.8-.1-11.6-3.8-17.5-5-1.4-.4-3.1-.8-3.9-2.6 1-.8 1.9-.3 2.7 0 6.6 2.6 13.3 5 20.1 7.1l53.7 19.4c23.5 9 48.2 16.5 69.6 30.2zm114.8 1.8c-.5.3-1.1.5-1.6.8-4-.7-7.5-3-11.6-3.4l-1.4 1.8-2.2-1.7c.9-.4 1.5-.7 2.1-1-33-14.2-69.9-25.5-99-46.5 6.7 1 11.2 6.4 17.4 8.6 12.9 6.7 25.8 13.1 39.1 19 11.4 4.3 22.3 9.3 33.9 13.3 7.2 4.3 16.4 4.5 23.3 9.1zm-174.8 2.5l-4.1.2-66.1-24.4c-9.7-3.2-19.4-6.6-29-10.1-7.3-3.6-16.4-4.4-22.4-9.9l121.6 44.2zm100.7 2.9c-23.5-8.3-43.5-22.7-66.5-31.9-13.8-6.2-28.5-10-42.4-16-.8-.3-1.3-.7-1.3-2 38.6 12.4 74.8 30.7 110.5 49.5-.1.1-.2.3-.3.4zm38.4 2.3l-5.2.2-26.9-11.1c-3.2-1.8-9.1-1.8-10-5.9l42.1 16.8zm-225.8-67.2l-.6 1.5c-17.8-5.8-34.2-14.8-51-22.5l.6-1.8c16.7 8.3 33.3 16.7 51 22.8zm-3.1 67.4c-1.6 0-3.1-.1-4.6-.1l-7.9-2.8c-6.6-2.4-25.4-6.6-28.5-11.9 13.2 5.4 27.3 9.8 41 14.8zm185.2-17.4c-.8 1.2-1.7.6-2.6.1-14.5-7.7-30.4-14.5-43.6-23.5.8-.6 1.5-.3 2.2.1 9.1 4.1 17.6 10.2 27.2 13.9 3.5 3 15.7 6 16.8 9.4zm-20.6 14.6l-2.7-.2c-.2-.4-.3-.7-.4-1.1l3.1 1.3zM100 332.9c-3.1 1.3-6.6-2.3-9.3-3.7-1.5-.8-3-1.6-4.5-2.3l.2-1.5c4.7 2.4 9.3 4.9 13.6 7.5zm240.9 53.7l-4.5-.2c-1-.6-1.9-1.3-2.8-2.1 2.4.3 4.8 1.2 7.3 2.3zM93.2 368.9c.1.4-.2.6-.8.6-.5-.6-.9-1.3-1.3-1.9l2.1 1.3zm199 8.5l11 5.4c-1.6 1.2-12.3-3-11-5.4zM110 337.1c-2.6.5-7.3-1.3-9.5-3.5 3.5-.4 6.5 1.5 9.5 3.5zm-10.5 36.1l-4.6-2.4c1.6-1.5 2.7.1 3.8.3.8 0 1.5.5.8 2.1z"/></g><path d="M167.1 161.9c35.1 10.4 122.4 43.2 126.1 43.2l29.2-17.8 70.3-40.6-4.7 74.9 28.4 74.1L314.8 321H167.1l13.5-82.5-13.5-76.6z" fill="#fcb500"/><path d="M362.8 281.1c-.8.9-.5 1.6.4 2.1-1 1-.5 2-1.1 3.1-1.9-2.9-.9 1-3.6 1.2-2 1.7-5.5 5.3-8.1 3.8-.6-.6-1.1-.4-1.7 0-2.9.8-6.4 1.6-9.3 1.4.6-2.4-.7-.8-2.4-.8-1.5-2.1-4.6.4-6.4-2.4-.2-.7-1.3-4.9-2.5-2.7-.7-.4-.2-2.2-1.7-1.8-1.4-.8-.9-5.2-2.5-3.4.5-2.9-2.9-.6-.7-4.1-2 .4-1.3-1.7-2.4-2.2-.1-.5.8-.6.5-1.3-4.5.5-.7-3.1-2-5.3-1.4-2.4.4-5-.5-7.4.4-.6 1.1-1.1.6-2-2.5 1.5-.7-1.4-1.5-3.1-1.3-5.3.6-9.4 1.6-14.5-.6-2.2 4-3.8 2.5-5.7.5-1.3 2.6-1 2.6-2.9 1.6-.2 3.3-.3 3.4-2.5 1.4 0 1.3-2 2.7-2.1.9-.1 1.2-1.2 1.9-1.7.9 3.1 2.3-.6 4.4-.1 1.5.3 2.1-2 3.6-.9.5.4 0 1.2.6 1.6.5.1.5-.5.9-.8 1.6 1.6 3.7.4 5.5.9.3 1.4.9 1.6 2.4 1.5 1.1.8 1.8 2.2 3.1 2.6 1.7 3.4-2.3 5.5-1.7 9-.3.8-1.2.4-1.4 1.1 2 3.6.4 7.7.9 11.6.4 2.2-1.5 3.2-.1 5 .8 1.1 1.5 1.4.3 2.3.3.7 1.1.6 1.5.9.1 3.8 2.7 6.5 3 9.9.4.6.9.2 1.4.7-.5 3.6 4.5 3.4 5.8 9zM262.5 285c-1.4 2.4-.4.7.8 2.2-1.8.3-3.4 1.8-1.8 3.3-.7 1.1-1.2 1.6-2.1.5-.4 1.5-1.9.5-2.8 1.1 3.4 2.5-1.4 2.2-3 4.1-1.7-1.3-1.9-1.3-4.8 1-2.7-2-3.6 1.7-6.8 1.7-.6-.9.6-.5.5-1.4-1.6-.6-3.3 1.7-3.4-1.8-1 .2-1.3 1-2.1 1.7-.9-4.4-2.7-.2-4.3-2.8-1.3 2.1-2.5-1.6-4.7-.9-.3-.8.7-.7.6-1.3-1.3-1.1-1.9 1.2-3.1.6-.5-.3-.1-1.1-.5-1.5-.8-.5-.6.9-1.5.5-.4-2.2.5-5.1-2.8-6.1.1-2.1.4-5.6-2.2-3.2-.9-1.1.3-1.8.5-2.8-.9-.8-.5-2.8-2.6-2.5.3-1.2 2-1.5 1.4-3.2-5.3 2.7-.2-3.3-.7-4.9-3.8-.7 2.5-4.4-.9-6.8.5-.6 1-1.1 1.6-1.7-1.3-.9 1-2.4-.6-3.5-1.4-1.3 1.4-2.6 1.6-3.9.1-.9-1.8-1.6-.7-2.4 1.5-1.1 1.3-3.4 3.3-4-2.3-1.5.3-2.5 0-4.7.4-.5 1.8.1 1.5-1.3-.1-1.1 1.4-.4 1.8-1.3.6-.9 2-2.1 2.7-2.1 1.7.1 2.2-.9 2.6-2.5 2.4-.1 4.7-.7 6.1-2.7 2.5-.8 4.4 2.3 6.2-1 1.5 1.1 4.6 5 5.2 1.7 3.3.1 1.3 6.1 4.4 3.4 4.7 2.8-.3 7.9-1.8 12.2-1.2 2.1 1 4.9-1.7 5.6.8.6 1.1 1.4.5 2.1-.6.8.8 1.8-.4 2.4 2 1.3-.8 2.7-.6 4.4 2.5 1.9 4 7.5 4.3 11.1 1.3.5 1.7 1.1 1.7 2.7 2.9 1.9 1 3.6 5.1 3.1-.5 2.9 2.6 1.8 2.7 4.4-.2.5.4.4.8.5z" fill="#fff"/><path d="M262.5 285c-.4-.1-.9 0-.9-.6-.2-2.5-3.3-1.5-2.7-4.4-4.2.5-2.2-1.2-5.1-3.1.1-1.7-.4-2.2-1.7-2.7-.4-3.5-1.8-9.1-4.3-11.1-.1-1.6 2.6-3 .6-4.3 1.2-.6-.2-1.6.4-2.4.6-.7.3-1.5-.5-2.1 2.7-.7.4-3.5 1.7-5.6 2.2-4.7 4.8-13.5 8.6-4.9 4.7.7.5 1.7 4.4 3.4-1 2.6 2.6 5.2 1 7.2-.7.5-.5 1.5 0 1.6 2.1 1.7 2.7 4.6 3.4 7.2-1 2.4 1.9 4.1.5 6.2-1.6 3.1 1.1 7-1.4 10.2-.3 2.4-1.2 7.6-4 5.4zm100.3-3.9c-1.2-5.4-6.4-5.5-6-8.8-.5-.5-1-.1-1.4-.7-.3-3.4-2.9-6.1-3-9.9-.7-.3-2.3-.7-.7-1.6-.3-1.3-2.8-2.8-1-4.5-.1-4.4 1.2-9.7-.7-13.8.2-.7 1.1-.3 1.4-1.1-.6-3.4 3.4-5.5 1.7-9 2.8-.4 4.6 1.9 4.4 4.4 3.3.9 1.5 2.9 4.1 3.5-.9 2 .5 2.8 1.9 3.6.2.8-1.2 1-.4 2.1.9.2 2.4.3 1.9 2.3 1.6 1.6 2.1 4.1 3.2 6.1-.7 3.4 1.5 7.8-.7 11.5.9 4.5.7 13.2-4.7 15.9z" fill="#090101"/></svg>
