<svg xmlns="http://www.w3.org/2000/svg" width="612" height="612" viewBox="0 0 612 612"><path fill="#A391C5" d="M289.161 217.928a170.885 170.885 0 0 0-38.746-.886c-68.916 6.321-125.864 54.619-134.83 120.187-1.829 13.367-1.496 26.571.667 39.349 10.381 61.324 63.945 112.533 134.501 122.184 85.257 11.662 162.969-41.747 173.58-119.294 10.605-77.55-49.915-149.868-135.172-161.54z"/><path fill="#CCA6CE" d="M182.662 93.986s69.075 41.438 51.083 134.562l34.83-9.27c0 .001 31.441-89.532-85.913-125.292z"/><path fill="#736BB1" d="M182.662 93.986s20.979 22.682 3.09 65.877c-17.889 43.195-22.006 67.86 7.202 79.545l23.131-5.312c29.645-95.001-33.423-140.11-33.423-140.11z"/><path fill="#6A56A0" d="M182.662 93.986s59.884 45.109 30.24 140.11l20.843-5.548c17.992-93.124-51.083-134.562-51.083-134.562z"/><path fill="#CCA6CE" d="M446.634 143.058c-119.643-10.804-124.791 90.428-124.791 90.428s16.436 32.158 41.217 43.106c-25.545-123.326 83.574-133.534 83.574-133.534z"/><path fill="#736BB1" d="M361.742 262.329c0 4.21 4.576 12.473 4.361 15.46 8.679 3.127 18.287 3.559 28.514-.891 41.414-18.006 27.91-41.114 27.91-78.927 0-7.793 1.06-14.663 2.686-20.73-21.419 5.941-63.471 20.805-63.471 85.088z"/><path fill="#6A56A0" d="M425.213 177.241c6.266-23.356 21.421-34.183 21.421-34.183s-109.119 10.208-83.574 133.535c.999.441 2.017.83 3.044 1.196.215-2.987.333-6.555.333-10.766 0-64.283 37.357-83.841 58.776-89.782z"/><path fill="#736BB1" d="M462.243 536.387c74.711-24.411 56.016-85.628 56.016-85.628s9.96 37.387-68.953 22.639c-78.912-14.746-105.931 32.58-105.931 32.58l23.062 29.785 7.778-16.581s47.612 30.409 88.028 17.205z"/><path fill="#6A56A0" d="M503.517 533.741c41.967-41.967 14.742-82.982 14.742-82.982s18.695 58.079-56.016 82.49c-40.416 13.204-88.028-14.067-88.028-14.067l-7.778 16.581 4.173 5.392c30.812 19.572 90.939 34.553 132.907-7.414z"/><path fill="#A391C5" d="M329.195 548.789c-82.963 47.561-156.052-15.048-156.052-15.048l-18.25-32.144s1.726-20.669 27.094-14.799c25.367 5.872 39.172-19.938 39.172-19.938l97.833 14.817 14.161 19.919s24.036-3.957 29.396 9.312c5.359 13.273-33.354 37.881-33.354 37.881z"/><path fill="#8E7EBB" d="M214.557 492.768s34.817 31.609 88.431 26.409c53.615-5.2 10.804-29.207 10.804-29.207s-15.605-4.881-29.612-4.881c-14.006 0-51.617-5.121-51.617-5.121"/><path fill="#9E9E9E" d="M224.723 491.535l-45.793-23.412c11.47 58.064 30.352 72.005 35.89 63.199 2.481-3.943 6.382-2.368 7.151-5.229 2.1-7.816 4.633-22.506 2.752-34.558z"/><path fill="#CCA6CE" d="M166.368 506.83c9.247 11.893 14.644 25.904 18.602 34.757 4.947 11.047 6.87 15.741 2.148 17.607-5.909 2.335-33.419-6.902-60.982-26.78-27.834-20.068-36.621-53.183-27.178-55.72 9.496-2.551 1.604-14.935 14.194-14.41 16.988.709 37.137 23.877 53.216 44.546z"/><path fill="#8E7EBB" d="M235.185 497.34l-11.32-5.819-30.896-19.96c5.134 54.425 21.19 68.993 27.098 61.416a5.813 5.813 0 0 1 1.787-1.532c2.222-1.252 4.505-.596 5.27-2.607 2.658-6.984 8.67-20.249 8.061-31.498z"/><path fill="#A391C5" d="M224.723 491.535l-10.334-5.284c1.885 10.109 3.812 25.874 2.189 43.224 2.26-1.589 4.787-1.135 5.393-3.381 2.1-7.817 4.633-22.507 2.752-34.559z"/><path fill="#CCA6CE" d="M214.389 486.251l-35.459-18.128c11.47 58.064 30.352 72.005 35.89 63.199a6.388 6.388 0 0 1 1.759-1.848c1.621-17.349-.306-33.114-2.19-43.223z"/><path fill="#A391C5" d="M187.117 559.194c8.501-3.358.037-25.627-20.75-52.364a463.872 463.872 0 0 0-2.533-3.221c13.187 16.824 18.569 34.113 12.394 41.587-5.73 6.94-21.424 5.421-50.094-12.782 27.564 19.878 55.074 29.115 60.983 26.78zM399.939 506.287c0-8.717-8.187-15.347-33.503 5.224-25.288 20.553-64.616 64.264-36.537 60.626 12.294-2.454 30.037-8.451 48.329-18.43 12.77-6.963 22.396-16.674 28.608-25.841 10.687-18.546-6.897-12.89-6.897-21.579z"/><path fill="#CCA6CE" d="M412.159 501.828c-9.103-3.714.276-15.014-12.285-16.069-16.941-1.421-39.823 19.042-58.365 37.545-23.971 23.919-35.154 44.954-27.135 49.353 2.156 1.182 7.765 1.031 15.525-.52-28.079 3.638 11.249-40.073 36.537-60.626 25.316-20.57 33.503-13.94 33.503-5.224 0 8.688 17.584 3.033 6.897 21.579 8.442-12.459 10.537-23.905 5.323-26.038z"/><path fill="#8E7EBB" d="M324.577 487.023c-.722 4.925-5.918 34.518-26.55 52.312 6.823 3.948 25.574-9.637 45.348-57.657l-18.798 5.345z"/><path fill="#CCA6CE" d="M324.577 487.023l-30.671 8.727c-4.183 11.461-4.558 26.362-4.009 34.438.192 2.953 4.328 2.17 5.997 6.518.455 1.191 1.182 2.077 2.133 2.631 20.632-17.796 25.828-47.389 26.55-52.314z"/><path fill="#A391C5" d="M289.161 217.928a170.885 170.885 0 0 0-38.746-.886c1.843 5.294 4.464 9.388 9.05 10.016 72.362 9.903 123.726 71.288 114.722 137.104-9.003 65.821-74.959 111.15-147.321 101.251-54.083-7.395-96.426-43.557-110.615-88.835 10.381 61.324 63.945 112.533 134.501 122.184 85.257 11.662 162.969-41.747 173.58-119.294 10.606-77.55-49.914-149.868-135.171-161.54z"/><path fill="#CCA6CE" d="M226.866 465.412c72.362 9.899 138.318-35.43 147.321-101.251 9.004-65.815-42.36-127.201-114.722-137.104-4.586-.628-7.207-4.722-9.05-10.016-68.916 6.321-125.864 54.619-134.83 120.187-1.829 13.367-1.496 26.571.667 39.349 14.188 45.278 56.53 81.441 110.614 88.835z"/><g><path fill="#736BB1" d="M335.581 223.892c-6.282-23.304-23.36-34-39.443-36.935-58.449-10.668-95.835 59.302-80.052 103.961 7.996-26.297 26.484-37.025 26.484-37.025s-20.008 23.201-7.174 62.275c0 0 8.585 32.007 51.8 32.007 0 0-19.277-34.539 8.942-57.408 28.592-23.172 48.677-32.621 39.443-66.875z"/><path fill="#6A56A0" d="M242.569 253.894s-18.488 10.728-26.484 37.025c3.583 10.127 9.88 18.961 19.31 25.25-12.833-39.075 7.174-62.275 7.174-62.275z"/></g><path fill="#6A56A0" d="M287.196 348.176s-25.073-24.485-6.611-53.469c14.4-22.611 25.508-22.705 37.212-40.813 11.704-18.109 18.854-42.033-4.229-60.381 0 0 28.471 14.091 26.23 45.896-1.946 27.614-23.206 35.491-41.011 53.296-17.804 17.804-20.979 32.518-11.591 55.471z"/><g><path fill="#6A56A0" d="M301.896 459.48c7.602 3.588 17.007-.37 21.013-8.839 3.989-8.473 1.055-18.25-6.557-21.832-7.609-3.587-17.011.366-21.006 8.83-4.006 8.482-1.06 18.254 6.55 21.841z"/></g><g><path fill="#FFF" d="M305.44 455.579a5.932 5.932 0 0 0 7.91-2.837 5.951 5.951 0 1 0-10.766-5.078c-1.396 2.96-.126 6.513 2.856 7.915z"/></g><g><path fill="#6A56A0" d="M211.922 449.751c8.407-.192 15.057-7.938 14.832-17.302-.216-9.365-7.212-16.793-15.628-16.591-8.403.192-15.047 7.935-14.832 17.298.224 9.369 7.216 16.797 15.628 16.595z"/></g><g><path fill="#FFF" d="M211.889 445.048a5.953 5.953 0 0 0-.272-11.901 5.956 5.956 0 0 0-5.814 6.092c.075 3.281 2.809 5.884 6.086 5.809z"/></g></svg>
