<svg xmlns="http://www.w3.org/2000/svg" width="612" height="612" viewBox="0 0 612 612"><path fill="#FFF" d="M106.916 208.682s-9.668-10.458-14.958-12.993-7.862-5.567-7.862-5.567-14.923-40.952 21.597-88.286l1.224 4.07-.659 11.016s15.24-38.801 53.34-54.9c0 0-13.004 15.477-13.004 31.903 0 0 30.765-32.67 64.296-43.622 0 0-13.591 21.121-12.023 45.33 0 0-52.125 31.749-56.489 98.886 0 0-12.941 12.913-32.105 14.291"/><path fill="#736BB1" d="M553.178 459.946c47.454-63.479 9.368-147.358 9.368-147.358 0 43.995-35.695 71.766-35.695 71.766 3.602-19.666-6.768-36.794-6.768-36.794 1.215 22.145-14.602 41.371-48.914 45.021-34.313 3.65-40.396 28.569-40.396 28.569l-43.204 17.995c21.912 14.176 124.198 76.195 165.609 20.801z"/><path fill="#6A56A0" d="M540.735 480.821c80.709-58.373 21.811-168.233 21.811-168.233s37.841 84.986-22.997 137.463c-52.373 45.176-130.067 3.271-151.98-10.905l-.603.251c0-.001 80.284 94.574 153.769 41.424z"/><path fill="#A391C5" d="M255.324 441.495s-4.317 43.074 24.36 55.485c28.677 12.41 26.73-15.406 24.297-28.875s-7.301-30.987-17.764-35.126c-10.463-4.138-12.699-4.38-13.771-4.38"/><path fill="#A391C5" d="M337.199 506.839c-3.65-5.233 4.261-12.086 4.261-12.086l-13.754-34.807s-35.283 43.85-46.479 52.976c-11.196 9.126-23.117 9.979-31.27 9.288s-10.463 2.638-10.463 8.844c0 6.205 4.138 6.223 4.138 6.223s-.853 4.605 4.016 7.283c6.203 3.414 10.047-.239 10.047-.239s.736 5.35 6.257 5.35c11.923 0 22.754-10.708 35.896-16.914 13.141-6.205 22.875-6.448 35.043-6.448 12.167-.001 5.959-14.237 2.308-19.47z"/><path fill="none" d="M413.306 557.684c-.65.125-1.307.26-1.965.396.59-.14 1.261-.271 1.965-.396z"/><path fill="#CCA6CE" d="M413.306 557.684c.103-.018.18-.04.285-.057 26.624-4.574 30.383-16.843 22.837-27.307-7.546-10.463-4.414-15.046 10.769-30.229 23.579-23.582 26.282-71.615-36.608-111.235h.003c-56.218-35.802-85.871-96.499-85.871-96.499l-37.285 8.854 9.944 40.401c-3.756-1.331-5.458-2.047-7.024-2.047l13.523 97.859 32.756-58.958s9.733 20.308-19.903 104.094c6.674 4.435 29.471 17.479 39.869 19.363 10.175 20.482 29.636 21.825 29.636 21.825-6.389 25.734-32.488 25.92-43.316 25.433-10.828-.488-10.101 8.519-10.101 12.776s5.232 4.987 5.232 4.987-.174 5.225 3.243 9.938c3.416 4.714 14.054.074 14.054.074 5.803 5.807 11.666-.157 27.237-8.875 8.347-4.674 18.787-7.953 28.743-10.001.003-.003.009-.003.009-.003.661-.134 1.317-.268 1.968-.393z"/><path fill="#9E9E9E" d="M411.329 558.083c.003-.003.009-.003.009-.003s-.006 0-.009.003z"/><path fill="#CCA6CE" d="M234.255 189.298c-2.19-4.175-4.389-3.165-7.803-5.15s-51.689-31.02-51.689-31.02l-19.82-5.726-33.483 36.261 20.918 108.329s15.189 4.221 23.844 19.492 39.917 14.142 39.917 14.142 15.22-36.349 15.22-39.511 5.84-26.28 5.84-30.905 9.246-61.736 7.056-65.912z"/><path fill="#A391C5" d="M145.281 251.579l-26.987 39.004s4.945 9.473 7.287 12.59c2.35 3.126 11.698 14.732 16.803 15.46 5.113.73 72.25 19.272 60.324-18.91-11.94-38.185-57.427-48.144-57.427-48.144z"/><path fill="#BC94C4" d="M177.501 104.372c-11.088-53.3 8.738-76.813 8.738-76.813-55.433 22.698-64.02 79.429-64.02 79.429l15.85 33.42c0-.001 50.525 17.264 39.432-36.036z"/><path fill="#A391C5" d="M289.138 397.968c-11.681-7.089-32.488-12.93-41.249-15.12l-9.534 51.207s18.294 20.223 50.782 20.223c32.489-.001 11.682-49.22.001-56.31z"/><path fill="#A391C5" d="M336.635 378.468l-32.756 58.958 3.422 24.757s5.604 25.752 23.884 37.909c-1.405-17.53 9.063-39.982 10.88-55.074 6.125-50.882-5.43-66.55-5.43-66.55z"/><path fill="#CCA6CE" d="M248.619 407.855s25.416 41.211 27.856 96.439c2.441 55.229 2.955 53.757-7.728 58.408-10.683 4.651-15.511 5.954-17.14 11.302-1.628 5.347-1.406 11.196 5.287 13.628 0 0-.148 6.867 3.611 7.908 7.463 2.068 15.24-1.454 15.24-1.454s1.52 3.445 6.459 4.497c4.939 1.053 18.617 0 18.617-12.775 0-12.776 4.167-66.838 18.143-102.699 13.977-35.862 42.021-102.868-9.6-150.479-51.62-47.611-75.983-26.964-75.983-26.964l-13.235 30.092M186.678 516.247c2.444-48.712 6.316-77.911 0-116.851-1.495-9.208-1.315-14.436-.166-17.076-11.248-20.927-26.818-37.433-26.818-37.433l-24.303 11.681s16.381 53.363 22.823 108.435c4.628 39.565 8.153 67.97-.246 73.713-8.398 5.744-19.832 5.964-19.832 15.454 0 5.961 3.437 8.753 6.485 9.004 0 0 1.631 10.622 16.615 5.797 0 0 1.719 4.059 9.143 4.059s15.577-5.353 14.724-15.696c-.547-6.638.164-24.39 1.575-41.087z"/><path fill="#A391C5" d="M186.678 399.396c6.316 38.939 2.444 68.139 0 116.851.79-9.325 1.793-18.326 2.929-24.865 3.166-18.251 8.236-36.993 8.236-71.546 0-12.471-4.977-25.697-11.33-37.516-1.15 2.641-1.329 7.868.165 17.076z"/><path fill="#A391C5" d="M167.217 401.832s15.428 22.387 24.505 51.347c0 0 9.078-30.907 9.078-32.122s-4.597-10.942-10.688-17.034c-6.092-6.092-8.539-10.954-10.729-13.141-2.19-2.188-7.056-3.65-7.056-3.65"/><g fill="#A391C5"><path d="M415.966 392.156a182.74 182.74 0 0 1-5.375-3.3h-.003c62.891 39.62 48.506 92.572 24.928 116.154-15.184 15.183-7.187 23.043-4.455 29.171.548 1.227 1.138 2.519 1.657 3.839l-.009-.006c4.632 12.931-23.401 13.204-52.003 31.136 0 0 14.676-7.739 33.258-11.578 7.646-1.42 14.87-2.119 20.431-2.119 13.357 0 14.385-10.528 7.743-19.825-6.643-9.297-3.69-19.532 14.262-37.487s19.269-70.759-40.434-105.985z"/><path d="M409.844 520.587s-6.328 5.23-23.607 3.163l-1.8 5.464c19.004 0 25.407-8.627 25.407-8.627z"/></g><path fill="#A391C5" d="M327.466 490.167s20.319 11.193 31.15 12.288V487.43s-13.993-1.672-30.42-14.159"/><path fill="#A391C5" d="M409.844 520.587s-5.772 4.418-19.529 4.013c-12.331-.362-27.6-4.962-33.714-22.675-16.798-48.654 21.117-83.361 21.117-83.361s-19.985 23.815-13.626 60.288c8.03 46.05 45.752 41.735 45.752 41.735zM348.336 329.554c-10.507-13.185-16.854-29.842-16.854-29.842l-27.603-8.849-13.769 1.495s-5.256 7.745-4.589 16.84l-19.503-20.77h-24.334s-80.906 66.433-16.792 63.028c7.007-.371 13.324-.083 19.082.676-.482 1.323-.83 2.692-.83 4.069 0 6.571-.365 26.647-.365 44.534s-1.075 15.334-1.845 19.473c-.77 4.138 14.159 19.072 14.159 19.072l4.478 10.771c22.178-34.091 19.994-70.237 17.943-84.557 17.336 13.609 20.858 32.08 20.858 32.08 10.013-23.829 1.588-56.442-3.853-72.703a35.697 35.697 0 0 0 4.109 2.737c23.362 13.384 49.708 1.946 49.708 1.946zM163.689 402.928s7.417 13.138 3.528 25.672c0 0 14.236-10.583 15.089-28.593.853-18.009-9.308-15.818-9.308-15.818"/><path fill="#736BB1" d="M382.586 249.977c-31.393 12.411-59.677-2.188-59.677-2.188 55.431-33.822 51.158-78.12 51.158-78.12-16.549 25.31-61.781 23.693-61.781 23.693 49.98-49.98 38.015-108.56 38.015-108.56-30.099 48.001-87.2 44.28-87.2 44.28l-89.604 28.421s2.592 36.204 13.118 49.399 24.274 13.355 24.274 13.355c-27.631 29.659-5.646 47.443-5.646 47.443-17.213 12.125-9.779 31.786-9.779 31.786-13.854-3.296-29.071 8.496-29.071 8.496-13.723-19.381-35-16.886-35-16.886l-18.931 3.779c-12.114 27.58-1.049 48.321 25.287 74.655 26.336 26.333 24.813 49.182 24.813 49.182 7.575-7.574 9.582-19.072 9.582-19.072 31.575 23.727 33.036 79.212 33.036 79.212 23.91-15.697 26.77-46.967 26.77-46.967 3.285 6.936 5.11 19.48 5.11 19.48 44.292-70.197 19.928-110.373 19.928-110.373 57.892 18.006 61.351 59.012 61.351 59.012 13.872-53.659-8.972-88.771-8.972-88.771 65.984-3.961 73.219-61.256 73.219-61.256z"/><path fill="#736BB1" d="M285.462 277.354c28.498 15.331 77.412 9.855 97.124-27.377-31.393 12.411-59.677-2.188-59.677-2.188 55.431-33.822 51.158-78.12 51.158-78.12-16.549 25.31-61.781 23.693-61.781 23.693 49.98-49.98 38.015-108.56 38.015-108.56-30.099 48.001-87.2 44.28-87.2 44.28l-89.604 28.421s2.592 36.204 13.118 49.399 24.274 13.355 24.274 13.355c-27.631 29.659-5.646 47.443-5.646 47.443-17.213 12.125-9.779 31.786-9.779 31.786s-25.937 4.35-33.848 30.797c-9.248 30.922 18.56 64.063.947 88.429 7.575-7.574 9.582-19.072 9.582-19.072 31.575 23.727 33.036 79.212 33.036 79.212 23.91-15.697 26.77-46.967 26.77-46.967 3.285 6.936 5.11 19.48 5.11 19.48 44.292-70.197 19.928-110.373 19.928-110.373 57.892 18.006 61.351 59.012 61.351 59.012 13.872-53.659-8.972-88.771-8.972-88.771-35.074-47.144-74.777-45.067-74.777-45.067s22.373-4.144 50.871 11.188z"/><path fill="#6A56A0" d="M382.586 249.977c-19.712 37.233-67.257 39.831-97.124 27.377-30.637-12.776-50.871-11.188-50.871-11.188s39.703-2.076 74.777 45.067c65.983-3.961 73.218-61.256 73.218-61.256zM262.673 127.326l-45.446 54.754c54.755-5.476 84.938-59.278 84.938-59.278-20.921 6.976-39.492 4.524-39.492 4.524zM350.301 84.803s-4.942 85.597-81.847 103.849c0 0 19.039 4.711 43.833 4.711-.001-.001 49.775-34.274 38.014-108.56zM130.227 314.952c15.505-5.789 24.554 7.053 27.922 13.338 13.084-27.112 37.316-28.804 37.316-28.804-17.438-5.889-30.437 4.332-30.437 4.332-14.875-14.875-33.634-12.722-33.634-12.722l-18.931 3.779c-7.392 16.826-6.114 31.107 1.954 45.666.618-12.223 5.774-21.842 15.81-25.589zM205.181 478.852s42.078-49.773-5-131.292c0 0 47.343 46.604 36.88 103.806 0 0-.97-10.354-5.048-17.655 0-.001-.733 29.809-26.832 45.141zM318.34 400.004s1.709-74.24-91.254-88.771c0 0 16.919 9.622 29.904 29.759-.001 0 49.547 15.576 61.35 59.012zM306.434 239.647c4.563 2.832 10.315 5.943 16.476 8.142 0 0 51.158-22.635 51.158-78.12-.001 0-3.945 47.78-67.634 69.978zM210.89 220.258c21.069-21.072 60.242-2.586 60.242-2.586s-20.83-25.478-54.817-19.347-23.219 14.96-23.219 14.96 4.422 9.192 17.794 6.973"/><path fill="#CCA6CE" d="M167.477 193.02l-38.95-.211-27.406 3.873-13.458 20.208c-6.593 12.462-9.297 16.466-7.266 24.232 2.03 7.766 5.963 15.083-4.426 27.723-10.392 12.642-13.845 19.429-19.386 25.677-4.834 5.453-2.895 11.75 3.833 16.731 9.029 6.69 23.374 14.431 28.869 8.496 5.495-5.935 31.772-26.297 60.794-26.297 31.373 0 39.181-28.737 45.515-53.52-15.281-12.901-28.088-29.659-28.119-46.912z"/><path fill="#A391C5" d="M72.982 318.879c10.506 5.159 14.034 4.552 17.926.659s30.052-25.188 56.58-25.188 50.617-15.149 37.293-46.562c0 0 3.787 34.037-38.876 39.626-20.328 2.664-35.682 11.918-49.279 21.263-10.312 7.088-10.677 15.093-23.644 10.202"/><path fill="#736BB1" d="M81.121 196.693s-12.465-48.931 25.986-95.895c0 0-1.141 6.702-1.141 14.504 0 0 17.265-37.621 54.498-54.777 0 0-13.871 16.974-13.871 33.4 0 0 28.757-29.75 64.296-43.622 0 0-23.376 29.605-5.344 79.252l-59.585 63.649s-24.959 23.362-43.04 20.998c-9.005-1.177-16.144-5.745-21.799-17.509z"/><path fill="#6A56A0" d="M210.89 50.304s-22.729 36.583-2.173 79.252c20.556 42.668-20.083 40.998-20.083 40.998s-25.329-89.952 22.256-120.25zM160.464 60.525s-12.594 16.974-13.871 33.4c0 0-8.579 7.666-13.506 14.966 0 .001 3.285-29.932 27.377-48.366z"/><path fill="#CCA6CE" d="M274.839 13.924c-9.297 50.251-36.806 73.979-102.58 112.188-69.65 40.458-42.5 100.529-42.5 100.529l20.747 9.291C328.179 179.3 274.839 13.924 274.839 13.924z"/><path fill="#736BB1" d="M263.343 98.124s-15.209 16.181-40.761 29.322c-25.535 13.132-64.226 41.12-68.666 74.529 1.192 20.607 29.993 19.94 69.139-14.062 6.756-5.869 12.542-11.949 17.533-18.109 26.463-33.846 22.755-71.68 22.755-71.68z"/><path fill="#6A56A0" d="M269.791 74.596c-17.966 32.593-42.609 44.229-65.6 58.938-43.057 23.479-65.625 67.166-45.917 79.354 19.712 12.191 52.616-15.211 52.616-15.211-42.708 26.781-58.989-21.654-2.216-56.526 6.188-3.827 12.098-7.295 17.194-10.417 27.497-16.84 37.476-32.61 37.476-32.61s3.708 37.835-22.755 71.68c36.879-45.481 29.202-95.208 29.202-95.208z"/><g><path fill="#9DB3D1" d="M106.448 221.875c-.667-2.458-2.059-4.766-4.141-6.856-1.551-1.546-3.57-3.217-6.074-5.102 1.141.941 2.179 1.845 3.034 2.698 2.037 2.051 3.405 4.312 4.061 6.725.074.359 1.306 6.739-2.338 11.193-2.196 2.689-5.624 4.05-10.187 4.05-.029 0-.063 0-.091-.003-2.208-.151-4.352-.867-6.376-2.13l-1.34-.927c-1.683-1.221-3.514-2.883-5.669-5.039 3.388 3.533 6.04 6.108 8.39 7.814l1.363.947c2.07 1.289 4.255 2.019 6.502 2.173.035.003.069.003.103.003 4.648 0 8.139-1.389 10.38-4.129 3.718-4.544 2.457-11.049 2.383-11.417z"/><path fill="#CEE1F0" d="M103.328 219.339c-.656-2.413-2.024-4.674-4.061-6.725-.855-.853-1.894-1.756-3.034-2.698-4.574-3.445-10.825-7.634-19.272-13.281a2655.293 2655.293 0 0 1-9.023-6.046c-26.693-17.96-33.03-20.037-35.471-20.037-1.073 0-1.666.414-2.025.824l70.679 58.955c3.456-4.441 2.281-10.638 2.207-10.992z"/><path fill="#9DB3D1" d="M49.937 198.122a815.595 815.595 0 0 0 4.375 4.409 539.825 539.825 0 0 1 5.43 5.519c4.962 5.047 9.126 9.468 12.554 13.115a679.795 679.795 0 0 0 5.031 5.319c2.156 2.156 3.987 3.818 5.669 5.039l1.34.927c2.024 1.263 4.169 3.015 6.376 3.166.028.003.673.183.702.183 4.562 0 7.38-2.575 9.576-5.265.051-.062.08-.134.131-.2l-70.679-58.955c-.2.228-.348.453-.411.607-.633 1.531-1.642 4.014 19.906 26.136z"/><path fill="#9DB3D1" d="M92.793 223.389c6.594 5.501 10.786 2.13 10.786-2.159 0-4.29 1.129 4.472 1.129 4.472s1.278 1.916 0 3.194c-1.277 1.277-2.829 3.559-4.654 3.559s-1.369.091-5.749-3.194-5.019-3.559-5.019-3.559"/></g><g><path fill="#6A56A0" d="M109.831 255.717c4.617-11.077 10.885-13.35 15.816-3.371 4.925 9.979-24.235 23.591-15.816 3.371z"/></g><g><path fill="#FFF" d="M117.69 257.337c1.272.53 2.84-.313 3.488-1.874.647-1.563.14-3.257-1.141-3.782-1.278-.524-2.846.317-3.497 1.882-.646 1.558-.133 3.252 1.15 3.774z"/></g></svg>
