<svg xmlns="http://www.w3.org/2000/svg" width="612" height="612" viewBox="0 0 612 612"><path fill="#8EC65E" d="M566.425 333.216c-31.302 42.616-62.757 35.313-86.266 51.139-26.251 17.672-24.587 50.328 17.221 53.571 0 0 58.341-33.88 59.685-34.013 1.352-.131 14.199-40.286 17.199-44.376 3.012-4.088 15.778-61.698 15.778-61.698l-.14-20.94c0-.001-5.746 32.177-23.477 56.317z"/><g fill="#6EA041"><path d="M589.902 276.898c-20.345 104.061-75.358 177.503-227.279 108.633l48.282 57.89c14.462-10.368 27.05-13.938 38.551-13.786 91.755 0 112.859-54.209 112.859-54.209s14.095 37.213-15.026 71.804c5.762-2.851 11.812-6.967 18.242-12.715 53.188-47.547 24.371-157.617 24.371-157.617z"/><path d="M565.728 368.529s-24.517 61.105-116.271 61.105c35.361.466 60.427 36.106 97.833 17.595 29.12-34.59 18.438-78.7 18.438-78.7z"/></g><path fill="#99B259" d="M141.495 432.431c-21.708 52.456 2.153 110.308 2.153 110.308l13.457-8.983 6.145 4.363C176 516.497 215.67 483.4 215.67 483.4l14.155-60.475s-66.613-42.943-88.33 9.506z"/><path fill="#99B259" d="M141.929 466.191s34.328 48.796 116.525 40.469c102.51-10.391 107.393-95.547 107.393-95.547s-70.729-25.331-97.706-31.886"/><path fill="#C5DD7C" d="M191.823 468.265s42.108 35.675 57.157 90.67l8.745-4.077 14.868 14.418s43.428-67.314 28.236-138.354c-15.198-71.036-109.007-32.365-109.007-32.365"/><path fill="#C5DD7C" d="M286.095 464.847c31.613 6.497 65.38 28.791 99.399 78.171l9.487-11.158 22.586 13.244s-5.235-90.492-53.001-165.591c-36.499 19.827-69.802 46.003-78.471 85.334z"/><path fill="#C5DD7C" d="M359.867 372.382a245.933 245.933 0 0 0-12.737-17.06c-63.987-78.177-126.437-100.296-215.823-46.858l26.816 110.624-90.575 89.926s49.062 20.708 101.448-8.378c2.708-1.506 5.251-3.187 7.692-4.959l.003.019c27.78-19.139 62.557-36.807 100.829-32.247 9.386-42.23 44.038-70 82.347-91.067z"/><path fill="#8EC65E" d="M101.761 288.146S-38.91 395.19 56.783 534.083c0 0 19.294-25.307 42.987-34.812 18.651-7.483 42.578 1.519 68.002-32.055 17.056-22.525 12.566-57.689 70.649-57.598 0 0-28.569-65.322-90.696-64.368-62.598.96-45.964-57.104-45.964-57.104z"/><path fill="#5A7F39" d="M115.424 444.208c4.109 2.422 10.169.133 13.543-5.108 3.364-5.235 2.752-11.44-1.351-13.844-4.103-2.42-10.156-.13-13.511 5.104-3.376 5.248-2.784 11.441 1.319 13.848z"/><path fill="#FFF" d="M122.815 439.112c-1.192 1.833-3.434 2.574-5.042 1.623-1.604-.948-1.947-3.209-.767-5.041 1.179-1.843 3.45-2.562 5.051-1.624 1.596.942 1.935 3.206.758 5.042z"/><path fill="#8EC65E" d="M194.201 361.55s108.455-47.781 198.739 15.116c-32.501-52.624-108.703-133.848-257.751-88.521l-38.247 71.588s30.354 39.835 44.988 36.437l52.271-34.62z"/><path fill="#8EC65E" d="M272.593 569.275s11.713-152.403-91.495-185.051c-103.208-32.653 34.312-38.976 34.312-38.976l70.167-9.617 18.477 4.15c0 .001 33.542 141.564-31.461 229.494z"/><path fill="#8EC65E" d="M287.097 424.292c0-4.071-59.396-64.251-59.396-64.251s-115.162-40.552-46.602 28.008c66.841 66.842 67.881 170.886 67.881 170.886l8.637-2.851 14.976 13.191s30.827-96.774 30.827-101.011c0-4.229-16.323-39.905-16.323-43.972z"/><path fill="#8EC65E" d="M372.427 348.135c-47.927-57.161-72.032-17.722-72.032-17.722s-127.356 60.379-47.968 88.919c103.949 37.372 133.067 123.686 133.067 123.686l9.712-10.334 22.361 12.42c13.904-74.09 2.996-139.571-45.14-196.969z"/><path fill="#6EA041" d="M391.354 364.737c21.739 31.93 36.976 47.647 75.355 47.647s-4.64 8.907-7.347 8.907c-2.708 0-23.521-2.568-41.795-4.668-18.273-2.099-15.569.606-18.273-2.099"/><path fill="#6EA041" d="M417.567 545.104s49.135-175.021-114.147-256.958l-34.22 18.939s167.76 23.067 141.227 234.056c0 0 4.099 2.273 7.14 3.963zM248.98 558.935l8.637-2.851 14.976 13.191s58.14-61.657 34.473-181.227c0 0 9.938 100.221-38.868 170.287l-10.146-5.815-9.072 6.415z"/><path fill="#6EA041" d="M417.567 545.104l-22.361-12.42-9.712 10.334 8.254-15.122 23.819 6.766"/><g><path fill="#6EA041" d="M325.927 223.952c-18.267 22.678-73.617 84.246-145.329 96.99 72.245 24.999 101.429-5.314 135.994-38.193 43.031-40.897 76.709-31.727 76.709-31.727-25.506-13.499-47.82-22.124-67.374-27.07z"/><path fill="#5A7F39" d="M325.927 223.952c-98.144-24.837-126.504 43.536-133.885 60.49-8.844 20.334-29.812 29.369-29.812 29.369a253.808 253.808 0 0 0 18.369 7.131c71.711-12.745 127.061-74.312 145.328-96.99z"/><path fill="#6EA041" d="M251.19 170.783c-16.295 35.139-67.976 132.351-156.414 171.777 101.242 9.128 129.177-39.363 163.231-92.868 42.407-66.591 88.805-65.542 88.805-65.542-37.241-9.245-68.796-13.237-95.622-13.367z"/><path fill="#5A7F39" d="M251.19 170.783c-134.611-.618-149.283 96.729-153.357 120.983-4.893 29.086-29.058 47.464-29.058 47.464a343.64 343.64 0 0 0 26.001 3.33c88.438-39.426 140.119-136.638 156.414-171.777z"/><path fill="#6EA041" d="M64.555 308.239c8.596 32.114-5.295 64.095-5.295 64.095 122.249-91.282 133.261-154.657 138.217-217.811.298-3.777.729-7.43 1.281-10.971 8.583-55.664 45.897-82.191 45.897-82.191-230.738 67.894-188.703 214.757-180.1 246.878z"/><g><g fill="#8EC65E"><path d="M244.646 61.361a405.581 405.581 0 0 0-27.237 8.837 517.055 517.055 0 0 1 27.237-8.837zM81.693 299.903c-7.572-45.232-27.675-170.125 135.715-229.705C17.376 141.234 48.786 277.907 58.571 308.239c13.397 41.525.685 64.095.685 64.095s30.881-22.018 22.437-72.431z"/></g></g></g></svg>
