<svg xmlns="http://www.w3.org/2000/svg" width="612" height="612" viewBox="0 0 612 612"><path fill="#A4D175" d="M217.299 549.321c-19.575-2.861-48.469 8.714-36.874 22.502-8.411-11.816 19.459-15.172 38.909-8.231 10.596 3.778 25.662 9.798 16.809 14.712 11.96-5.064 10.866-24.636-18.844-28.983z"/><path fill="#6EA041" d="M220.249 559.782c-20.251-5.007-48.234.225-39.823 12.041 11.596 13.784 43.759 11.54 55.718 6.48 8.853-4.913 4.146-13.566-15.895-18.521z"/><path fill="#A4D175" d="M262.373 145.892c-78.263 97.074-32.768 169.57-25.944 187.321 6.824 17.743 10.467 16.835-19.11 41.403-30.973 25.736-41.253 67.966-34.994 104.278 3.09 17.948 10.199 34.45 20.887 46.798 24.387 28.163 65.104 39.718 101.027 24.121 4.696-10.501 21.083-23.319 35.759-27.69 10.671-13.102 17.617-27.976 21.203-43.229 8.88-37.736-2.865-77.767-30.125-98.817-31.548-24.356-57.332-15.925-70.528-29.121-21.424-21.421 15.739-230.07 190.179-333.999l2.76-2.117c-.001 0-112.847 33.974-191.114 131.052z"/><path fill="none" d="M310.298 304.237c-.777.285-1.519.563-2.28.849a68.1 68.1 0 0 0 4.414-1.62c-.71.255-1.42.516-2.134.771z"/><path fill="#6EA041" d="M407.872 151.428c-3.246-68.143-50.65-83.762-109.509 39.938-51.701 108.673-22.657 124.51 9.655 113.719.762-.285 1.503-.563 2.28-.849.714-.255 1.424-.517 2.134-.771a.703.703 0 0 1 .109-.041c.086-.037.17-.058.256-.092 50.416-18.301 99.357-38.491 95.187-146.521-.071-1.842-.079-3.582-.112-5.383z"/><path fill="#5A7F39" d="M415.756 78.381c10.457-37.968 30.961-57.89 37.73-63.542l-2.76 2.117c-174.44 103.929-211.603 312.578-190.179 333.999-5.777-6.691-1.359-20.985 18.614-32.684 7.409-4.343 16.911-8.754 28.856-13.187-32.312 10.791-58.045-12.94-8.295-113.719 53.906-109.2 104.903-108.081 108.149-39.938-.692-30.021 2.659-54.089 7.885-73.046z"/><path fill="#A09F9F" d="M312.432 303.466c.123-.048.243-.089.365-.133-.086.034-.17.055-.256.092a.703.703 0 0 0-.109.041z"/><path fill="#6EA041" d="M304.222 549.813c4.7-10.501 21.087-23.319 35.762-27.69 10.671-13.102 17.621-27.976 21.203-43.229 8.88-37.736-2.865-77.767-30.128-98.817-31.544-24.356-57.332-15.925-70.528-29.121-.221-.222-.425-.493-.628-.755 9.488 14.145 26.467 14.006 44.51 28.248 21.618 17.063 32.425 46.025 30.488 80.571-4.044 72.248-99.243 106.087-133.9 63.915.734.925 1.438 1.872 2.195 2.757 24.39 28.163 65.108 39.718 101.026 24.121z"/><path fill="#557635" d="M281.795 491.604c4.993-.01 9.053-4.529 9.053-10.089.003-5.554-4.051-10.04-9.04-10.019-4.992.013-9.037 4.529-9.037 10.082-.002 5.562 4.035 10.048 9.024 10.026zM214.424 487.859c-4.258 1.476-6.396 6.506-4.771 11.246 1.614 4.734 6.389 7.378 10.657 5.902 4.248-1.474 6.393-6.507 4.769-11.241-1.621-4.741-6.397-7.377-10.655-5.907z"/><path fill="#FFF" d="M285.659 478.422c-.006 1.944-1.58 3.538-3.531 3.541a3.521 3.521 0 0 1-3.531-3.52 3.544 3.544 0 0 1 3.534-3.542 3.513 3.513 0 0 1 3.528 3.521zM220.901 494.605a3.549 3.549 0 0 1-3.541 3.538 3.512 3.512 0 0 1-3.531-3.514 3.555 3.555 0 0 1 3.538-3.544 3.515 3.515 0 0 1 3.534 3.52z"/><path fill="#A4D175" d="M305.521 536.655c17.22-22.076 41.635-30.576 52.819-20.163 11.177 10.42-4.87 37.172-31.168 42.308-26.298 5.138-35.963-3.786-21.651-22.145z"/><path fill="#6EA041" d="M306.026 539.962c15.762-19.004 33.526-23.286 43.663-14.402 10.135 8.88-.088 29.431-24.058 33.946-23.947 4.52-32.722-3.735-19.605-19.544z"/></svg>
