<svg xmlns="http://www.w3.org/2000/svg" xmlns:xlink="http://www.w3.org/1999/xlink" width="612" height="612" viewBox="0 0 612 612"><linearGradient id="a" gradientUnits="userSpaceOnUse" x1="303.762" y1="698.565" x2="303.762" y2="119.815" gradientTransform="translate(0 -88)"><stop offset="0" stop-color="#3aaa49"/><stop offset="1" stop-color="#b1cb35"/></linearGradient><path fill="url(#a)" d="M303.764 31.814c-103.301 0-187.05 57.214-187.05 222.26v325.685c0 17.015 13.795 30.805 30.806 30.805 17.023 0 30.809-13.791 30.809-30.805v-20.461c33.183 3.107 77.168 2.854 125.436 2.854 48.264 0 92.254 0 125.432-5.374v22.981c0 17.015 13.796 30.805 30.809 30.805 17.018 0 30.805-13.791 30.805-30.805V237.502c-.002-159.475-83.744-205.688-187.047-205.688z"/><linearGradient id="b" gradientUnits="userSpaceOnUse" x1="305.983" y1="489.826" x2="305.983" y2="405.083" gradientTransform="translate(0 -88)"><stop offset="0" stop-color="#585857"/><stop offset="1" stop-color="#3d3d3c"/></linearGradient><path fill="url(#b)" d="M359.06 401.826a73.311 73.311 0 0 0 2.86-20.261c0-35.613-25.049-64.482-55.926-64.482-30.895 0-55.948 28.869-55.948 64.482a73.375 73.375 0 0 0 2.854 20.261h106.16z"/><defs><path id="c" d="M358.944 401.826a73.498 73.498 0 0 0 2.852-20.261c0-35.613-25.05-64.482-55.927-64.482-30.888 0-55.941 28.869-55.941 64.482a73.79 73.79 0 0 0 2.847 20.261h106.169z"/></defs><clipPath id="d"><use xlink:href="#c" overflow="visible"/></clipPath><linearGradient id="e" gradientUnits="userSpaceOnUse" x1="305.861" y1="500.887" x2="305.861" y2="467.045" gradientTransform="translate(0 -88)"><stop offset="0" stop-color="#be2026"/><stop offset="1" stop-color="#c44966"/></linearGradient><path clip-path="url(#d)" fill="url(#e)" d="M329.289 381.324c-7.055 0-13.663.716-19.429 1.962-7.21-2.623-16.82-4.241-27.425-4.241-22.272 0-40.313 7.071-40.313 15.79 0 8.715 18.041 15.78 40.313 15.78 7.051 0 13.678-.714 19.432-1.961 7.206 2.62 16.812 4.232 27.423 4.232 22.264 0 40.31-7.063 40.31-15.779.002-8.715-18.039-15.783-40.311-15.783z"/><g><defs><path id="f" d="M359.06 401.826a73.311 73.311 0 0 0 2.86-20.261c0-35.613-25.049-64.482-55.926-64.482-30.895 0-55.948 28.869-55.948 64.482a73.375 73.375 0 0 0 2.854 20.261h106.16z"/></defs><clipPath id="g"><use xlink:href="#f" overflow="visible"/></clipPath><radialGradient id="h" cx="301.009" cy="410.15" r="51.88" gradientTransform="translate(0 -88)" gradientUnits="userSpaceOnUse"><stop offset="0" stop-color="#fff"/><stop offset="1" stop-color="#f6f6f6"/></radialGradient><path clip-path="url(#g)" fill="url(#h)" d="M228.94 308.395h144.137v27.512H228.94z"/></g><g><radialGradient id="i" cx="357.698" cy="335.775" r="42.011" gradientTransform="translate(0 -88)" gradientUnits="userSpaceOnUse"><stop offset="0" stop-color="#b1cb35"/><stop offset="1" stop-color="#3aaa49"/></radialGradient><path fill="url(#i)" d="M357.695 205.765c23.203 0 42.014 18.808 42.014 42.01 0 23.201-18.812 42.012-42.014 42.012-23.199 0-42.008-18.811-42.008-42.012.001-23.203 18.809-42.01 42.008-42.01z"/><radialGradient id="j" cx="-275.029" cy="315.958" r="51.772" gradientTransform="matrix(-1 0 0 1 73.621 -88)" gradientUnits="userSpaceOnUse"><stop offset="0" stop-color="#fff"/><stop offset="1" stop-color="#f6f6f6"/></radialGradient><circle fill="url(#j)" cx="357.695" cy="247.774" r="33.61"/><radialGradient id="k" cx="-267" cy="329.295" r="24.799" gradientTransform="matrix(-1 0 0 1 73.621 -88)" gradientUnits="userSpaceOnUse"><stop offset="0" stop-color="#585857"/><stop offset="1" stop-color="#3d3d3c"/></radialGradient><path fill="url(#k)" d="M344.954 234.682c8.892 0 16.099 7.209 16.099 16.098 0 8.89-7.207 16.099-16.099 16.099-8.887 0-16.098-7.209-16.098-16.099 0-8.889 7.211-16.098 16.098-16.098z"/><radialGradient id="l" cx="-619.453" cy="231.008" r="21.217" gradientTransform="matrix(-.2011 .1966 .3189 .37 145.113 280.678)" gradientUnits="userSpaceOnUse"><stop offset="0" stop-color="#fff"/><stop offset="1" stop-color="#f6f6f6"/></radialGradient><path fill="url(#l)" d="M343.92 249.347c2.429 2.816 5.633 3.888 7.161 2.391 1.528-1.502.804-4.988-1.617-7.808-2.435-2.812-5.635-3.882-7.169-2.381-1.533 1.49-.8 4.982 1.625 7.798z"/></g><g><radialGradient id="m" cx="254.274" cy="335.775" r="42.011" gradientTransform="translate(0 -88)" gradientUnits="userSpaceOnUse"><stop offset="0" stop-color="#b1cb35"/><stop offset="1" stop-color="#3aaa49"/></radialGradient><circle fill="url(#m)" cx="254.274" cy="247.775" r="42.011"/><radialGradient id="n" cx="-171.605" cy="315.958" r="51.772" gradientTransform="matrix(-1 0 0 1 73.621 -88)" gradientUnits="userSpaceOnUse"><stop offset="0" stop-color="#fff"/><stop offset="1" stop-color="#f6f6f6"/></radialGradient><circle fill="url(#n)" cx="254.274" cy="247.774" r="33.61"/><radialGradient id="o" cx="-189.428" cy="329.29" r="24.8" gradientTransform="matrix(-1 0 0 1 73.621 -88)" gradientUnits="userSpaceOnUse"><stop offset="0" stop-color="#585857"/><stop offset="1" stop-color="#3d3d3c"/></radialGradient><circle fill="url(#o)" cx="267.383" cy="250.78" r="16.095"/><radialGradient id="p" cx="-410.103" cy="119.776" r="21.225" gradientTransform="matrix(-.2011 .1966 .3189 .37 145.113 280.678)" gradientUnits="userSpaceOnUse"><stop offset="0" stop-color="#fff"/><stop offset="1" stop-color="#f6f6f6"/></radialGradient><path fill="url(#p)" d="M266.347 249.347c2.428 2.816 5.633 3.888 7.165 2.391 1.524-1.502.798-4.988-1.623-7.808-2.431-2.812-5.634-3.882-7.165-2.381-1.53 1.49-.803 4.982 1.623 7.798z"/></g><g fill="#32583D"><path d="M210.903 118.263c.076.021.459-5.851 3.073-14.556 2.544-8.692 7.834-20.084 15.621-30.302 7.689-10.272 17.636-19.216 26.235-25.174 8.572-6.018 15.59-9.277 17.053-9.853 6.099-2.188 12.596 2.215 14.305 9.178 1.735 7.006-.793 13.641-5.492 15.34-1.183.468-7.26 1.654-15.426 4.671-8.16 2.975-18.362 8.022-27.353 14.939-9.04 6.827-16.627 15.548-21.242 22.888-4.685 7.321-6.715 12.914-6.774 12.869z"/><path d="M393.249 136.87c-.031.044-2.776-8.215-10.282-18.531-7.363-10.376-19.31-22.639-32.918-32.852-13.557-10.292-28.708-18.431-40.748-22.708-12.091-4.439-20.587-4.999-22.23-5.311-3.384-.574-6.178-2.245-8.48-4.595-2.255-2.355-4.101-5.439-4.428-9.044-.327-3.556 1.22-7.008 4.474-9.377 3.197-2.367 8.011-3.495 12.914-2.642 2.426.383 14.083 3.401 27.185 11.113 13.216 7.547 27.893 19.476 40.109 32.968 12.309 13.425 22.164 28.403 27.645 40.4 5.629 11.984 6.728 20.636 6.759 20.579z"/><path d="M220.884 52.635c.186.044-.133-4.316 3.009-10.624 1.573-3.119 4.513-6.558 8.743-8.975 4.193-2.445 9.398-3.692 14.456-3.999 20.563-.952 38.797 8.991 40.736 10.259 3.952 2.829 3.063 9.935-1.821 15.197-4.91 5.292-10.712 7.863-13.482 5.889-.691-.5-3.625-3.694-8.371-7.604-4.714-3.853-11.296-8.472-18.29-10.776-6.932-2.503-14.274-1.621-18.764 2.515-4.497 3.93-6.123 8.254-6.216 8.118z"/><path d="M311.376 2.896c.056.054-2.923.9-6.349 3.313-3.5 2.36-6.394 6.582-6.827 11.11-1.065 9.095 3.557 19.547 3.452 20.724.142 2.387-5.437 5.023-12.602 5.786-7.142.764-13.227-1.118-13.397-4.327-.017-.796.482-4.631 1.975-10.037 1.509-5.315 4.116-12.501 9.117-18.353 4.965-6.059 12.334-8.676 17.007-8.764 4.794-.258 7.617.632 7.624.548z"/><path d="M343.01 34.529c0 .057-2.84-1.347-7.13-1.991-4.309-.699-9.741.038-14.313 2.419-9.223 4.675-16.048 14.095-17.17 14.695-2.062 1.412-7.275-1.957-11.622-7.684-4.347-5.72-5.819-11.935-3.105-13.804 1.23-.641 14.938-7.11 30.045-6.1 7.444.476 14.152 3.613 17.856 6.768 3.798 3.142 5.392 5.739 5.439 5.697zM294.635 104.381c.048.091-8.261-8.744-13.094-21.105-5.181-12.083-6.543-26.345-6.234-27.877.467-3.223 6.729-4.593 13.741-3.122 7.07 1.478 12.37 4.559 12.044 6.896-.202 1.151-5.013 11.091-6.652 22.314-2.031 11.107.125 22.92.195 22.894z"/></g><path fill="#32583D" d="M402.774 201.533a5.94 5.94 0 0 1-4.786-2.392c-.188-.243-19.225-25.139-41.169-22.865-10.504 1.084-15.524 3.882-20.852 6.837-7.163 3.984-14.568 8.099-32.203 8.099-16.838 0-24.556-4.561-31.364-8.588-5.733-3.39-10.688-6.316-21.971-6.316-22.973 0-33.328 13.024-33.755 13.58-2.013 2.596-5.75 3.104-8.354 1.113a5.956 5.956 0 0 1-1.175-8.322c.561-.744 14.081-18.32 43.285-18.32 14.55 0 21.725 4.237 28.056 7.978 6.282 3.718 11.71 6.926 25.279 6.926 14.537 0 20.037-3.052 26.405-6.592 5.848-3.255 12.488-6.943 25.424-8.281 28.71-2.968 51.016 26.342 51.961 27.592a5.982 5.982 0 0 1-1.198 8.363 6 6 0 0 1-3.583 1.188z"/><g fill="#3D2A15"><path d="M357.897 302.375c-29.303 0-53.148-23.843-53.148-53.149s23.846-53.147 53.148-53.147c29.31 0 53.154 23.842 53.154 53.147.001 29.306-23.844 53.149-53.154 53.149zm0-98.334c-24.916 0-45.184 20.268-45.184 45.182 0 24.915 20.269 45.188 45.184 45.188 13.666 0 25.936-6.102 34.228-15.72 6.832-7.917 10.959-18.217 10.959-29.467 0-24.915-20.272-45.183-45.187-45.183z"/><path d="M478.514 347.467a17.44 17.44 0 0 1-3.906-.445c-6.876-1.598-15.749-8.002-18.897-29.424-4.623-31.466-61.96-34.746-62.546-34.773l.283-3.977c2.521.125 61.801 3.5 66.907 38.254 2.971 20.252 10.981 25.033 15.489 26.076 4.648 1.075 12.878-2.238 14.967-4.552l-.169 3.75c-2.501 2.765-6.976 5.091-12.128 5.091z"/></g></svg>
