<svg xmlns="http://www.w3.org/2000/svg" width="612" height="612" viewBox="0 0 612 612"><radialGradient id="a" cx="349.612" cy="134.125" r="212.455" gradientTransform="matrix(1 0 0 -1 0 435)" gradientUnits="userSpaceOnUse"><stop offset="0" stop-color="#00b34d"/><stop offset="1" stop-color="#007b3b"/></radialGradient><path fill="url(#a)" d="M536.688 376.441c0 128.785-104.397 233.188-233.179 233.188-128.783 0-233.186-104.404-233.186-233.188 0-128.776 104.402-233.174 233.186-233.174 128.781-.003 233.179 104.399 233.179 233.174z"/><radialGradient id="b" cx="334.772" cy="60.66" r="35.387" gradientTransform="matrix(1 0 0 -1 0 435)" gradientUnits="userSpaceOnUse"><stop offset="0" stop-color="#fff"/><stop offset="1" stop-color="#f6f6f6"/></radialGradient><path fill="url(#b)" d="M370.161 401.863c0 4.338-3.53 7.861-7.866 7.861h-55.041c-4.345 0-7.87-3.523-7.87-7.861v-55.045c0-4.344 3.525-7.863 7.87-7.863h55.041c4.336 0 7.866 3.52 7.866 7.863v55.045z"/><radialGradient id="c" cx="325.797" cy="47.07" r="13.595" gradientTransform="matrix(1 0 0 -1 0 435)" gradientUnits="userSpaceOnUse"><stop offset="0" stop-color="#585857"/><stop offset="1" stop-color="#3d3d3c"/></radialGradient><path fill="url(#c)" d="M339.392 393.656a7.872 7.872 0 0 1-7.87 7.869h-11.453a7.864 7.864 0 0 1-7.866-7.869v-11.457c0-4.334 3.519-7.865 7.866-7.865h11.453c4.34 0 7.87 3.531 7.87 7.865v11.457z"/><radialGradient id="d" cx="331.797" cy="51.644" r="5.04" gradientTransform="matrix(1 .0057 .0057 -1 -1.616 433.685)" gradientUnits="userSpaceOnUse"><stop offset="0" stop-color="#fff"/><stop offset="1" stop-color="#f6f6f6"/></radialGradient><path fill="url(#d)" d="M335.499 386.082a2.927 2.927 0 0 1-2.934 2.902l-4.241-.027a2.908 2.908 0 0 1-2.896-2.936l.019-4.24a2.931 2.931 0 0 1 2.939-2.9l4.235.021a2.93 2.93 0 0 1 2.906 2.934l-.028 4.246z"/><g><radialGradient id="e" cx="229.04" cy="60.66" r="35.386" gradientTransform="matrix(1 0 0 -1 0 435)" gradientUnits="userSpaceOnUse"><stop offset="0" stop-color="#fff"/><stop offset="1" stop-color="#f6f6f6"/></radialGradient><path fill="url(#e)" d="M264.428 401.863c0 4.338-3.52 7.861-7.868 7.861h-55.04c-4.343 0-7.868-3.523-7.868-7.861v-55.045a7.865 7.865 0 0 1 7.868-7.863h55.04a7.861 7.861 0 0 1 7.868 7.863v55.045z"/><radialGradient id="f" cx="238.871" cy="47.07" r="13.595" gradientTransform="matrix(1 0 0 -1 0 435)" gradientUnits="userSpaceOnUse"><stop offset="0" stop-color="#585857"/><stop offset="1" stop-color="#3d3d3c"/></radialGradient><path fill="url(#f)" d="M252.465 393.656a7.864 7.864 0 0 1-7.867 7.869h-11.455a7.868 7.868 0 0 1-7.867-7.869v-11.457c0-4.334 3.524-7.865 7.867-7.865h11.455a7.87 7.87 0 0 1 7.867 7.865v11.457z"/><radialGradient id="g" cx="244.879" cy="51.148" r="5.039" gradientTransform="matrix(1 .0057 .0057 -1 -1.616 433.685)" gradientUnits="userSpaceOnUse"><stop offset="0" stop-color="#fff"/><stop offset="1" stop-color="#f6f6f6"/></radialGradient><path fill="url(#g)" d="M248.579 386.082a2.92 2.92 0 0 1-2.933 2.902l-4.245-.027a2.904 2.904 0 0 1-2.893-2.936l.021-4.24a2.916 2.916 0 0 1 2.933-2.9l4.243.021c1.608.018 2.912 1.32 2.896 2.934l-.022 4.246z"/></g><path d="M303.508 311.352h66.653v11.285h-66.653zM190.652 311.352h66.647v11.285h-66.647z"/><g><radialGradient id="h" cx="957.888" cy="329.757" r="246.226" gradientTransform="matrix(.3733 -.4443 -.6674 -.5608 183.034 642.836)" gradientUnits="userSpaceOnUse"><stop offset="0" stop-color="#003f00"/><stop offset="1" stop-color="#001900"/></radialGradient><path fill="url(#h)" d="M239.922 8.203s1.634 2.19 4.601 5.993c2.925 3.821 7.31 9.2 11.954 16.137 1.144 1.716 2.334 3.588 3.415 5.486 1.103 1.853 2.276 3.911 3.313 6.011 2.107 4.211 3.886 8.76 5.118 13.403 2.528 9.329 2.719 18.799 2.044 27.593-.332 4.418-.844 8.714-1.338 12.894-.198 1.757-.279 3.901-.314 5.893a105.47 105.47 0 0 0 .072 6.081c.303 8.104 1.426 15.997 3.108 22.742 1.653 6.756 3.93 12.318 5.941 15.938 2.013 3.668 3.574 5.424 4.026 6.048 1.843 2.437 2.614 4.454 3.855 7.303 1.14 2.763 2.619 6.047 2.257 8.815-.332 2.726-2.858 4.436-7.802 3.293-2.417-.571-5.386-1.907-8.354-4.006-2.977-2.076-5.876-4.884-8.169-7.955-1.148-1.506-4.301-6.121-6.81-12.291-2.571-6.177-4.46-13.731-5.232-21.668-.794-7.948-.591-16.365.56-24.763.293-2.103.646-4.203 1.073-6.299.439-2.118.874-4.11 1.568-6.338 1.234-3.808 2.461-7.589 3.503-11.397 2.1-7.604 3.336-15.434 2.432-23.397-.429-3.972-1.375-7.949-2.709-11.775-.664-1.921-1.435-3.767-2.271-5.66a81.348 81.348 0 0 0-2.492-5.318c-3.503-6.817-7.176-12.521-9.576-16.5-2.438-3.985-3.773-6.263-3.773-6.263z"/><radialGradient id="i" cx="982.267" cy="333.396" r="246.221" gradientTransform="matrix(.5248 -.6245 -.7383 -.6204 79.78 804.283)" gradientUnits="userSpaceOnUse"><stop offset="0" stop-color="#003f00"/><stop offset="1" stop-color="#001900"/></radialGradient><path fill="url(#i)" d="M508.574 71.209c-.028-.019-.525 3.772-2.157 10.218-1.663 6.406-4.507 15.516-10.16 25.377-5.621 9.829-14.296 20.381-26.913 28.279a81.608 81.608 0 0 1-10.072 5.379c-3.5 1.573-7.312 3.053-11.372 4.122-8.068 2.188-17.208 2.858-26.427 1.788-9.213-1.038-18.377-3.677-26.982-6.923-8.623-3.245-16.76-7.074-24.467-10.829l-11.162-5.524c-3.261-1.564-6.425-2.863-9.392-3.785-5.977-1.89-10.826-2.094-14.341-1.062-6.978 1.896-11.651 9.102-14.606 15.025a16.705 16.705 0 0 0-.765 1.79l-.767 2.005a67.026 67.026 0 0 0-1.144 3.514c-.617 2.084-.984 3.605-1.212 4.363-1.731 6.118-4.144 11.575-7.101 15.523-2.954 3.918-6.503 6.355-10.503 5.729-3.953-.618-7.64-4.428-9.804-10.429-2.177-5.966-2.77-14.068-.478-22.189.292-1.012.911-2.966 1.99-5.685a76.658 76.658 0 0 1 2.018-4.626c.406-.849.864-1.749 1.354-2.682a34.924 34.924 0 0 1 1.835-3.183c2.448-3.76 5.577-8.129 10.353-12.45 2.393-2.15 5.222-4.273 8.655-6.063a37.693 37.693 0 0 1 11.964-3.863c4.466-.675 9.277-.532 13.941.298 4.685.813 9.222 2.275 13.51 4.079 4.307 1.81 8.384 3.969 12.309 6.32l10.704 6.545c14.2 8.595 29.025 17.026 44.116 20.3 7.516 1.646 15.036 1.935 22.188.869 3.597-.524 7.023-1.393 10.481-2.468a75.658 75.658 0 0 0 9.755-3.773c12.421-5.765 21.882-14.506 28.422-23.162 6.6-8.66 10.498-17.118 12.887-23.136 2.374-6.055 3.32-9.708 3.343-9.691z"/><radialGradient id="j" cx="982.27" cy="333.394" r="246.226" gradientTransform="matrix(.5248 -.6245 -.7383 -.6204 79.78 804.283)" gradientUnits="userSpaceOnUse"><stop offset="0" stop-color="#003f00"/><stop offset="1" stop-color="#001900"/></radialGradient><path fill="url(#j)" d="M490.018 236.321c-.02.009-.597-3.643-.597-9.943-.079-6.303.343-15.254.036-26.008-.192-5.358-.558-11.225-1.831-17.182-.642-2.96-1.535-5.967-2.889-8.627a19.499 19.499 0 0 0-1.08-1.896 15.112 15.112 0 0 0-1.176-1.553c-.854-.983-1.865-1.842-2.989-2.474a10.57 10.57 0 0 0-3.547-1.24c-1.123-.188-2.539-.246-3.982-.132-.736.055-1.405.132-2.24.269l-2.539.383c-1.672.263-3.327.611-4.984.968-6.639 1.47-13.254 3.623-19.926 5.975-6.679 2.347-13.418 4.921-20.44 7.214a219.55 219.55 0 0 1-5.333 1.644l-2.729.772c-1.023.272-2.062.549-2.97.696-3.831.758-7.27 1.427-10.831 2.051-14.13 2.535-27.917 4.202-40.394 4.825-6.235.324-12.121.412-17.513.297l-13.734-.333c-8.306-.25-14.488-1.092-16.623-1.506-4.253-.807-8.49-2.249-12.348-4.282-3.847-2.03-7.305-4.665-9.781-7.53-2.492-2.853-3.917-5.847-4.166-8.216-.272-2.4.573-4.112 1.991-5.199 1.438-1.102 3.276-1.594 5.086-2.012a60.61 60.61 0 0 1 5.539-1.009c3.731-.492 8.346-.384 14.561.781 1.544.297 6.024 1.312 13.486 2.275l6.225.76 3.702.447 3.621.477c4.843.612 10.212 1.094 16.001 1.434 11.575.684 24.85.625 38.875-.212 3.486-.19 7.142-.471 10.476-.705.897-.053 1.601-.155 2.345-.258l2.528-.389c1.702-.272 3.424-.59 5.152-.918 6.924-1.33 14.018-3.037 21.263-4.605 7.256-1.568 14.688-3.002 22.297-3.732 1.906-.175 3.805-.327 5.733-.397l2.82-.09a37.804 37.804 0 0 1 3.148.018c2.177.107 4.423.412 6.886 1.146 2.389.72 4.668 1.819 6.678 3.293a21.785 21.785 0 0 1 5.081 5.2 26.328 26.328 0 0 1 3.04 5.862c1.392 3.776 1.958 7.296 2.301 10.625.593 6.645.184 12.549-.284 17.925-1.059 10.728-2.602 19.313-3.307 25.426-.79 6.088-.655 9.685-.638 9.685z"/><radialGradient id="k" cx="992.503" cy="332.912" r="246.206" gradientTransform="scale(1 -1) rotate(49.961 987.967 -471.34)" gradientUnits="userSpaceOnUse"><stop offset="0" stop-color="#003f00"/><stop offset="1" stop-color="#001900"/></radialGradient><path fill="url(#k)" d="M178.397 79.878c-.021.035 2.21.681 5.863 2.628 3.614 1.937 8.7 5.338 13.378 11.131a46.773 46.773 0 0 1 6.288 10.351c.441.997.846 2.021 1.233 3.091.389 1.156.743 2.343.985 3.527.531 2.381.794 4.779.946 7.149.314 4.763.168 9.468.234 13.972.075 4.439.383 8.867 1.542 11.777 1.492 4.197 8.428 7.243 15.915 8.478 7.547 1.296 15.484 1.29 22.452.961 14.008-.74 24.345-2.623 26.466-2.697 8.539-.52 16.334 5.712 17.391 14.436 1.058 8.713-5.797 16.708-15.413 17.311-2.402.07-13.878.088-30.026-2.271-8.064-1.255-17.337-3.035-27.21-6.939-4.915-2.013-10.047-4.572-14.869-8.605-2.411-2.03-4.667-4.416-6.567-7.347-.998-1.542-1.867-3.158-2.448-4.877-.623-1.69-1.016-3.539-1.233-5.101-.785-6.417.263-11.563 1.129-16.322.934-4.737 1.992-9.063 2.587-13.096.293-2.016.485-3.945.485-5.755a23.01 23.01 0 0 0-.146-2.63 42.86 42.86 0 0 0-.463-2.754 40.136 40.136 0 0 0-3.444-9.935c-2.977-5.937-6.957-10.146-9.984-12.724-3.054-2.603-5.118-3.729-5.091-3.759z"/><radialGradient id="l" cx="957.871" cy="329.754" r="246.212" gradientTransform="matrix(.3733 -.4443 -.6674 -.5608 183.034 642.836)" gradientUnits="userSpaceOnUse"><stop offset="0" stop-color="#003f00"/><stop offset="1" stop-color="#001900"/></radialGradient><path fill="url(#l)" d="M289.948 69.756c.04.015-2.826 4.518-6.507 11.683-1.814 3.601-3.792 7.894-5.429 12.72-1.638 4.82-2.932 10.204-3.218 15.801-.308 5.583.5 11.38 2.529 16.493a38.137 38.137 0 0 0 3.686 7.115c1.552 2.41 3.26 4.723 5.075 7.168 3.616 4.82 7.273 9.831 9.728 14.231 2.506 4.395 3.719 7.949 4.014 9.109.638 2.366.646 4.622.11 6.394-.527 1.781-1.587 3.056-2.893 3.773-2.654 1.45-6.118.663-9.294-1.313-3.218-2.007-5.74-4.715-7.731-6.87-1.991-2.23-3.356-3.652-3.761-5.191-.116-.412-.185-1.498-1.097-3.983-.88-2.474-2.872-6.408-5.854-11.909-1.446-2.726-3.16-5.966-4.676-9.47-1.616-3.707-2.817-7.607-3.458-11.351-1.301-7.548-.36-14.386 1.617-20.144 1.982-5.781 4.941-10.637 8.038-14.798 3.09-4.156 6.35-7.613 9.221-10.449 5.779-5.654 9.925-8.986 9.9-9.009z"/><radialGradient id="m" cx="1080.256" cy="396.537" r="246.213" gradientTransform="rotate(66.653 695.5 -192.145)" gradientUnits="userSpaceOnUse"><stop offset="0" stop-color="#003f00"/><stop offset="1" stop-color="#001900"/></radialGradient><path fill="url(#m)" d="M275.197 317.627c.051 0-2.828-8.684-6.301-21.938-1.697-6.627-3.503-14.397-4.798-22.768-1.285-8.334-2.067-17.293-1.557-25.908.475-8.604 2.377-16.771 5.692-23.116a38.258 38.258 0 0 1 5.703-8.227c2.298-2.569 4.796-4.919 7.426-7.374 5.253-4.83 10.587-9.909 14.324-14.89 3.8-4.922 5.857-9.458 6.4-11.001 1.167-3.139 1.527-6.526 1.132-9.538-.389-3.036-1.513-5.666-3.018-7.619-3.081-3.952-7.524-5.101-11.794-4.253-4.314.848-7.869 3.247-10.684 5.15-2.821 2.027-4.743 3.248-5.486 5.287-.215.547-.473 2.132-1.984 5.262-1.486 3.128-4.571 7.706-9.132 13.99-2.228 3.124-4.863 6.855-7.289 11.107a60.902 60.902 0 0 0-6.062 14.752c-2.791 10.476-2.68 21.393-1.101 31.377 1.572 10.023 4.51 19.308 7.713 27.634 3.22 8.321 6.731 15.699 9.867 21.89 6.328 12.365 10.983 20.156 10.949 20.183z"/><radialGradient id="n" cx="992.519" cy="332.911" r="246.227" gradientTransform="scale(1 -1) rotate(49.961 987.967 -471.34)" gradientUnits="userSpaceOnUse"><stop offset="0" stop-color="#003f00"/><stop offset="1" stop-color="#001900"/></radialGradient><path fill="url(#n)" d="M406.237 122.978c-.033-.018.253 3.17-1.308 8.36a38.108 38.108 0 0 1-3.996 8.906c-2.06 3.182-4.756 6.833-9.729 9.267l.279-.102c-1.111.629-2.329 1.254-3.754 1.775-1.414.514-3.142.903-4.973.897-1.831.006-3.507-.354-4.827-.626-1.318-.278-2.414-.498-3.475-.638a24.712 24.712 0 0 0-1.581-.146c-.616-.065-.786-.009-1.483-.023a56.85 56.85 0 0 0-3.55.074c-2.372.122-4.751.37-7.137.754-9.509 1.515-18.907 5.057-27.723 8.692-8.794 3.664-17.142 7.314-23.94 9.718-6.786 2.457-11.896 3.726-13.321 3.937a13.563 13.563 0 0 1-11.321-3.498c-2.932-2.731-4.543-6.739-4.525-11.116a20.945 20.945 0 0 1 3.372-11.339c1.967-2.977 4.516-5.007 7.664-5.484 1.078-.169 4.99-.29 11.188-1.023 6.21-.672 14.737-2.138 24.827-3.644 10.042-1.451 21.811-2.8 33.506-1.632 2.913.275 5.808.722 8.624 1.313 1.413.299 2.803.631 4.167 1.006.576.156 1.658.433 2.285.675a34.52 34.52 0 0 1 2.107.793 52.116 52.116 0 0 1 3.653 1.706c1.03.52 1.712.858 2.299 1.064 1.083.445 2.919.281 4.876-.266l.538-.147-.255.047c3.085-.486 6.257-2.664 8.632-4.919 2.418-2.291 4.263-4.753 5.604-6.906 2.678-4.343 3.267-7.493 3.277-7.475z"/><radialGradient id="o" cx="957.878" cy="329.752" r="246.199" gradientTransform="matrix(.3733 -.4443 -.6674 -.5608 183.034 642.836)" gradientUnits="userSpaceOnUse"><stop offset="0" stop-color="#003f00"/><stop offset="1" stop-color="#001900"/></radialGradient><path fill="url(#o)" d="M319.279 2l2.317 6.846c1.455 4.372 3.812 10.616 5.778 18.245.956 3.796 1.736 7.967 1.831 12.245.118 4.275-.515 8.604-1.916 12.623-.688 1.991-1.639 4.002-2.565 5.775l-2.729 5.5-5.74 11.169c-3.813 7.487-7.405 15.068-9.965 22.568a97.586 97.586 0 0 0-3.107 11.146l-2.575 10.926c-1.566 6.7-2.455 12.353-2.744 16.623-.3 4.255-.117 7.104-.137 8.056-.046 3.821-.977 6.915-2.61 9.242-1.644 2.288-4.009 3.81-7.264 3.413-3.226-.389-6.805-2.84-9.661-6.84-2.857-3.956-4.858-9.44-4.784-14.668.014-1.283.248-5.021 1.369-9.967 1.086-4.947 3.18-10.979 5.935-17.307l4.349-9.867c1.534-3.635 3.395-7.426 5.496-11.011 4.2-7.238 9.373-14.076 14.619-20.609l7.807-9.615 3.74-4.742c1.281-1.55 2.336-2.933 3.273-4.533a27.057 27.057 0 0 0 3.57-10.115c.541-3.577.424-7.287.062-10.812-.787-7.09-2.238-13.301-3.042-17.567L319.279 2z"/></g><path opacity=".5" fill="#010101" d="M249.027 450.158c2.346 3.381 5.049 6.451 8.126 9.07 3.004 2.678 6.333 4.955 9.911 6.658 7.149 3.416 15.148 4.646 22.995 3.666 7.866-.848 15.5-3.594 22.804-7.037 3.667-1.719 7.229-3.686 10.71-5.812 3.556-2.02 6.942-4.314 10.418-6.545-5.929 5.734-12.541 10.785-19.783 14.92-7.22 4.16-15.249 7.207-23.736 8.213-8.443.98-17.38-.523-24.752-4.859-7.36-4.272-13.315-10.729-16.693-18.274z"/><g><linearGradient id="p" gradientUnits="userSpaceOnUse" x1="255.7" y1="70.808" x2="179.034" y2="19.975" gradientTransform="matrix(1 0 0 -1 0 435)"><stop offset="0" stop-color="#fff" stop-opacity=".5"/><stop offset="1" stop-color="#fff"/></linearGradient><path opacity=".25" fill="url(#p)" d="M261.585 408.006c0 3.738-3.139 6.775-7.011 6.775h-72.532c-3.873 0-7.017-3.037-7.017-6.775v-38.051c0-3.738 3.145-6.764 7.017-6.764h72.532c3.872 0 7.011 3.025 7.011 6.764v38.051z"/><linearGradient id="q" gradientUnits="userSpaceOnUse" x1="257.819" y1="72.119" x2="177.103" y2="18.601" gradientTransform="matrix(1 0 0 -1 0 435)"><stop offset="0" stop-color="#585857"/><stop offset="1" stop-color="#010101"/></linearGradient><path fill="url(#q)" d="M254.422 417.406h-71.931c-5.562 0-10.093-4.527-10.093-10.092v-36.666c0-5.562 4.531-10.1 10.093-10.1h71.931c5.567 0 10.095 4.537 10.095 10.1v36.666c-.001 5.567-4.528 10.092-10.095 10.092zm-71.93-51.584a4.832 4.832 0 0 0-4.824 4.826v36.666c0 2.66 2.168 4.82 4.824 4.82h71.931a4.83 4.83 0 0 0 4.832-4.82v-36.666a4.835 4.835 0 0 0-4.832-4.826h-71.931z"/><g><linearGradient id="r" gradientUnits="userSpaceOnUse" x1="378.523" y1="70.807" x2="301.856" y2="19.973" gradientTransform="matrix(1 0 0 -1 0 435)"><stop offset="0" stop-color="#fff" stop-opacity=".5"/><stop offset="1" stop-color="#fff"/></linearGradient><path opacity=".25" fill="url(#r)" d="M384.409 408.006c0 3.738-3.139 6.775-7.007 6.775h-72.533c-3.868 0-7.015-3.037-7.015-6.775v-38.051c0-3.738 3.143-6.764 7.015-6.764h72.533c3.868 0 7.007 3.025 7.007 6.764v38.051z"/><linearGradient id="s" gradientUnits="userSpaceOnUse" x1="380.64" y1="72.118" x2="299.927" y2="18.602" gradientTransform="matrix(1 0 0 -1 0 435)"><stop offset="0" stop-color="#585857"/><stop offset="1" stop-color="#010101"/></linearGradient><path fill="url(#s)" d="M377.248 417.406h-71.932c-5.57 0-10.092-4.527-10.092-10.092v-36.666c0-5.562 4.523-10.1 10.092-10.1h71.932c5.559 0 10.091 4.537 10.091 10.1v36.666c0 5.567-4.532 10.092-10.091 10.092zm-71.931-51.584a4.833 4.833 0 0 0-4.831 4.826v36.666c0 2.66 2.167 4.82 4.831 4.82h71.932a4.83 4.83 0 0 0 4.825-4.82v-36.666a4.836 4.836 0 0 0-4.825-4.826h-71.932z"/></g><linearGradient id="t" gradientUnits="userSpaceOnUse" x1="264.428" y1="49.166" x2="295.226" y2="49.166" gradientTransform="matrix(1 0 0 -1 0 435)"><stop offset="0" stop-color="#595758"/><stop offset="1" stop-color="#191919"/></linearGradient><path fill="url(#t)" d="M264.428 383.951h30.798v3.766h-30.798z"/></g></svg>
